%TF.GenerationSoftware,KiCad,Pcbnew,8.0.5*%
%TF.CreationDate,2024-10-18T14:20:25+07:00*%
%TF.ProjectId,stm32la_pcb,73746d33-326c-4615-9f70-63622e6b6963,rev?*%
%TF.SameCoordinates,Original*%
%TF.FileFunction,Legend,Top*%
%TF.FilePolarity,Positive*%
%FSLAX46Y46*%
G04 Gerber Fmt 4.6, Leading zero omitted, Abs format (unit mm)*
G04 Created by KiCad (PCBNEW 8.0.5) date 2024-10-18 14:20:25*
%MOMM*%
%LPD*%
G01*
G04 APERTURE LIST*
%ADD10C,0.150000*%
%ADD11C,0.125000*%
%ADD12C,0.120000*%
%ADD13C,0.000000*%
%ADD14C,0.127000*%
G04 APERTURE END LIST*
D10*
X128204819Y-63845237D02*
X129014342Y-63845237D01*
X129014342Y-63845237D02*
X129109580Y-63797618D01*
X129109580Y-63797618D02*
X129157200Y-63749999D01*
X129157200Y-63749999D02*
X129204819Y-63654761D01*
X129204819Y-63654761D02*
X129204819Y-63464285D01*
X129204819Y-63464285D02*
X129157200Y-63369047D01*
X129157200Y-63369047D02*
X129109580Y-63321428D01*
X129109580Y-63321428D02*
X129014342Y-63273809D01*
X129014342Y-63273809D02*
X128204819Y-63273809D01*
X128919104Y-62845237D02*
X128919104Y-62369047D01*
X129204819Y-62940475D02*
X128204819Y-62607142D01*
X128204819Y-62607142D02*
X129204819Y-62273809D01*
X129204819Y-61369047D02*
X128728628Y-61702380D01*
X129204819Y-61940475D02*
X128204819Y-61940475D01*
X128204819Y-61940475D02*
X128204819Y-61559523D01*
X128204819Y-61559523D02*
X128252438Y-61464285D01*
X128252438Y-61464285D02*
X128300057Y-61416666D01*
X128300057Y-61416666D02*
X128395295Y-61369047D01*
X128395295Y-61369047D02*
X128538152Y-61369047D01*
X128538152Y-61369047D02*
X128633390Y-61416666D01*
X128633390Y-61416666D02*
X128681009Y-61464285D01*
X128681009Y-61464285D02*
X128728628Y-61559523D01*
X128728628Y-61559523D02*
X128728628Y-61940475D01*
X128204819Y-61083332D02*
X128204819Y-60511904D01*
X129204819Y-60797618D02*
X128204819Y-60797618D01*
D11*
X96940476Y-55951000D02*
X97011904Y-55974809D01*
X97011904Y-55974809D02*
X97130952Y-55974809D01*
X97130952Y-55974809D02*
X97178571Y-55951000D01*
X97178571Y-55951000D02*
X97202380Y-55927190D01*
X97202380Y-55927190D02*
X97226190Y-55879571D01*
X97226190Y-55879571D02*
X97226190Y-55831952D01*
X97226190Y-55831952D02*
X97202380Y-55784333D01*
X97202380Y-55784333D02*
X97178571Y-55760523D01*
X97178571Y-55760523D02*
X97130952Y-55736714D01*
X97130952Y-55736714D02*
X97035714Y-55712904D01*
X97035714Y-55712904D02*
X96988095Y-55689095D01*
X96988095Y-55689095D02*
X96964285Y-55665285D01*
X96964285Y-55665285D02*
X96940476Y-55617666D01*
X96940476Y-55617666D02*
X96940476Y-55570047D01*
X96940476Y-55570047D02*
X96964285Y-55522428D01*
X96964285Y-55522428D02*
X96988095Y-55498619D01*
X96988095Y-55498619D02*
X97035714Y-55474809D01*
X97035714Y-55474809D02*
X97154761Y-55474809D01*
X97154761Y-55474809D02*
X97226190Y-55498619D01*
X97392856Y-55474809D02*
X97511904Y-55974809D01*
X97511904Y-55974809D02*
X97607142Y-55617666D01*
X97607142Y-55617666D02*
X97702380Y-55974809D01*
X97702380Y-55974809D02*
X97821428Y-55474809D01*
X98011904Y-55974809D02*
X98011904Y-55474809D01*
X98011904Y-55474809D02*
X98130952Y-55474809D01*
X98130952Y-55474809D02*
X98202380Y-55498619D01*
X98202380Y-55498619D02*
X98249999Y-55546238D01*
X98249999Y-55546238D02*
X98273809Y-55593857D01*
X98273809Y-55593857D02*
X98297618Y-55689095D01*
X98297618Y-55689095D02*
X98297618Y-55760523D01*
X98297618Y-55760523D02*
X98273809Y-55855761D01*
X98273809Y-55855761D02*
X98249999Y-55903380D01*
X98249999Y-55903380D02*
X98202380Y-55951000D01*
X98202380Y-55951000D02*
X98130952Y-55974809D01*
X98130952Y-55974809D02*
X98011904Y-55974809D01*
X98511904Y-55974809D02*
X98511904Y-55474809D01*
X98845237Y-55474809D02*
X98940475Y-55474809D01*
X98940475Y-55474809D02*
X98988094Y-55498619D01*
X98988094Y-55498619D02*
X99035713Y-55546238D01*
X99035713Y-55546238D02*
X99059523Y-55641476D01*
X99059523Y-55641476D02*
X99059523Y-55808142D01*
X99059523Y-55808142D02*
X99035713Y-55903380D01*
X99035713Y-55903380D02*
X98988094Y-55951000D01*
X98988094Y-55951000D02*
X98940475Y-55974809D01*
X98940475Y-55974809D02*
X98845237Y-55974809D01*
X98845237Y-55974809D02*
X98797618Y-55951000D01*
X98797618Y-55951000D02*
X98749999Y-55903380D01*
X98749999Y-55903380D02*
X98726190Y-55808142D01*
X98726190Y-55808142D02*
X98726190Y-55641476D01*
X98726190Y-55641476D02*
X98749999Y-55546238D01*
X98749999Y-55546238D02*
X98797618Y-55498619D01*
X98797618Y-55498619D02*
X98845237Y-55474809D01*
X118648397Y-54920657D02*
X118600778Y-54896847D01*
X118600778Y-54896847D02*
X118529349Y-54896847D01*
X118529349Y-54896847D02*
X118457921Y-54920657D01*
X118457921Y-54920657D02*
X118410302Y-54968276D01*
X118410302Y-54968276D02*
X118386492Y-55015895D01*
X118386492Y-55015895D02*
X118362683Y-55111133D01*
X118362683Y-55111133D02*
X118362683Y-55182561D01*
X118362683Y-55182561D02*
X118386492Y-55277799D01*
X118386492Y-55277799D02*
X118410302Y-55325418D01*
X118410302Y-55325418D02*
X118457921Y-55373038D01*
X118457921Y-55373038D02*
X118529349Y-55396847D01*
X118529349Y-55396847D02*
X118576968Y-55396847D01*
X118576968Y-55396847D02*
X118648397Y-55373038D01*
X118648397Y-55373038D02*
X118672206Y-55349228D01*
X118672206Y-55349228D02*
X118672206Y-55182561D01*
X118672206Y-55182561D02*
X118576968Y-55182561D01*
X118886492Y-55396847D02*
X118886492Y-54896847D01*
X118886492Y-54896847D02*
X119172206Y-55396847D01*
X119172206Y-55396847D02*
X119172206Y-54896847D01*
X119410302Y-55396847D02*
X119410302Y-54896847D01*
X119410302Y-54896847D02*
X119529350Y-54896847D01*
X119529350Y-54896847D02*
X119600778Y-54920657D01*
X119600778Y-54920657D02*
X119648397Y-54968276D01*
X119648397Y-54968276D02*
X119672207Y-55015895D01*
X119672207Y-55015895D02*
X119696016Y-55111133D01*
X119696016Y-55111133D02*
X119696016Y-55182561D01*
X119696016Y-55182561D02*
X119672207Y-55277799D01*
X119672207Y-55277799D02*
X119648397Y-55325418D01*
X119648397Y-55325418D02*
X119600778Y-55373038D01*
X119600778Y-55373038D02*
X119529350Y-55396847D01*
X119529350Y-55396847D02*
X119410302Y-55396847D01*
X99619048Y-55951000D02*
X99690476Y-55974809D01*
X99690476Y-55974809D02*
X99809524Y-55974809D01*
X99809524Y-55974809D02*
X99857143Y-55951000D01*
X99857143Y-55951000D02*
X99880952Y-55927190D01*
X99880952Y-55927190D02*
X99904762Y-55879571D01*
X99904762Y-55879571D02*
X99904762Y-55831952D01*
X99904762Y-55831952D02*
X99880952Y-55784333D01*
X99880952Y-55784333D02*
X99857143Y-55760523D01*
X99857143Y-55760523D02*
X99809524Y-55736714D01*
X99809524Y-55736714D02*
X99714286Y-55712904D01*
X99714286Y-55712904D02*
X99666667Y-55689095D01*
X99666667Y-55689095D02*
X99642857Y-55665285D01*
X99642857Y-55665285D02*
X99619048Y-55617666D01*
X99619048Y-55617666D02*
X99619048Y-55570047D01*
X99619048Y-55570047D02*
X99642857Y-55522428D01*
X99642857Y-55522428D02*
X99666667Y-55498619D01*
X99666667Y-55498619D02*
X99714286Y-55474809D01*
X99714286Y-55474809D02*
X99833333Y-55474809D01*
X99833333Y-55474809D02*
X99904762Y-55498619D01*
X100071428Y-55474809D02*
X100190476Y-55974809D01*
X100190476Y-55974809D02*
X100285714Y-55617666D01*
X100285714Y-55617666D02*
X100380952Y-55974809D01*
X100380952Y-55974809D02*
X100500000Y-55474809D01*
X100976190Y-55927190D02*
X100952381Y-55951000D01*
X100952381Y-55951000D02*
X100880952Y-55974809D01*
X100880952Y-55974809D02*
X100833333Y-55974809D01*
X100833333Y-55974809D02*
X100761905Y-55951000D01*
X100761905Y-55951000D02*
X100714286Y-55903380D01*
X100714286Y-55903380D02*
X100690476Y-55855761D01*
X100690476Y-55855761D02*
X100666667Y-55760523D01*
X100666667Y-55760523D02*
X100666667Y-55689095D01*
X100666667Y-55689095D02*
X100690476Y-55593857D01*
X100690476Y-55593857D02*
X100714286Y-55546238D01*
X100714286Y-55546238D02*
X100761905Y-55498619D01*
X100761905Y-55498619D02*
X100833333Y-55474809D01*
X100833333Y-55474809D02*
X100880952Y-55474809D01*
X100880952Y-55474809D02*
X100952381Y-55498619D01*
X100952381Y-55498619D02*
X100976190Y-55522428D01*
X101428571Y-55974809D02*
X101190476Y-55974809D01*
X101190476Y-55974809D02*
X101190476Y-55474809D01*
X101595238Y-55974809D02*
X101595238Y-55474809D01*
X101880952Y-55974809D02*
X101666667Y-55689095D01*
X101880952Y-55474809D02*
X101595238Y-55760523D01*
X95119047Y-55498619D02*
X95071428Y-55474809D01*
X95071428Y-55474809D02*
X94999999Y-55474809D01*
X94999999Y-55474809D02*
X94928571Y-55498619D01*
X94928571Y-55498619D02*
X94880952Y-55546238D01*
X94880952Y-55546238D02*
X94857142Y-55593857D01*
X94857142Y-55593857D02*
X94833333Y-55689095D01*
X94833333Y-55689095D02*
X94833333Y-55760523D01*
X94833333Y-55760523D02*
X94857142Y-55855761D01*
X94857142Y-55855761D02*
X94880952Y-55903380D01*
X94880952Y-55903380D02*
X94928571Y-55951000D01*
X94928571Y-55951000D02*
X94999999Y-55974809D01*
X94999999Y-55974809D02*
X95047618Y-55974809D01*
X95047618Y-55974809D02*
X95119047Y-55951000D01*
X95119047Y-55951000D02*
X95142856Y-55927190D01*
X95142856Y-55927190D02*
X95142856Y-55760523D01*
X95142856Y-55760523D02*
X95047618Y-55760523D01*
X95357142Y-55974809D02*
X95357142Y-55474809D01*
X95357142Y-55474809D02*
X95642856Y-55974809D01*
X95642856Y-55974809D02*
X95642856Y-55474809D01*
X95880952Y-55974809D02*
X95880952Y-55474809D01*
X95880952Y-55474809D02*
X96000000Y-55474809D01*
X96000000Y-55474809D02*
X96071428Y-55498619D01*
X96071428Y-55498619D02*
X96119047Y-55546238D01*
X96119047Y-55546238D02*
X96142857Y-55593857D01*
X96142857Y-55593857D02*
X96166666Y-55689095D01*
X96166666Y-55689095D02*
X96166666Y-55760523D01*
X96166666Y-55760523D02*
X96142857Y-55855761D01*
X96142857Y-55855761D02*
X96119047Y-55903380D01*
X96119047Y-55903380D02*
X96071428Y-55951000D01*
X96071428Y-55951000D02*
X96000000Y-55974809D01*
X96000000Y-55974809D02*
X95880952Y-55974809D01*
D10*
X125278095Y-66664819D02*
X125849523Y-66664819D01*
X125563809Y-67664819D02*
X125563809Y-66664819D01*
X126087619Y-66664819D02*
X126754285Y-67664819D01*
X126754285Y-66664819D02*
X126087619Y-67664819D01*
X111548333Y-67149580D02*
X111500714Y-67197200D01*
X111500714Y-67197200D02*
X111357857Y-67244819D01*
X111357857Y-67244819D02*
X111262619Y-67244819D01*
X111262619Y-67244819D02*
X111119762Y-67197200D01*
X111119762Y-67197200D02*
X111024524Y-67101961D01*
X111024524Y-67101961D02*
X110976905Y-67006723D01*
X110976905Y-67006723D02*
X110929286Y-66816247D01*
X110929286Y-66816247D02*
X110929286Y-66673390D01*
X110929286Y-66673390D02*
X110976905Y-66482914D01*
X110976905Y-66482914D02*
X111024524Y-66387676D01*
X111024524Y-66387676D02*
X111119762Y-66292438D01*
X111119762Y-66292438D02*
X111262619Y-66244819D01*
X111262619Y-66244819D02*
X111357857Y-66244819D01*
X111357857Y-66244819D02*
X111500714Y-66292438D01*
X111500714Y-66292438D02*
X111548333Y-66340057D01*
X112500714Y-67244819D02*
X111929286Y-67244819D01*
X112215000Y-67244819D02*
X112215000Y-66244819D01*
X112215000Y-66244819D02*
X112119762Y-66387676D01*
X112119762Y-66387676D02*
X112024524Y-66482914D01*
X112024524Y-66482914D02*
X111929286Y-66530533D01*
X80916666Y-75181009D02*
X80583333Y-75181009D01*
X80583333Y-75704819D02*
X80583333Y-74704819D01*
X80583333Y-74704819D02*
X81059523Y-74704819D01*
X81773809Y-75181009D02*
X81916666Y-75228628D01*
X81916666Y-75228628D02*
X81964285Y-75276247D01*
X81964285Y-75276247D02*
X82011904Y-75371485D01*
X82011904Y-75371485D02*
X82011904Y-75514342D01*
X82011904Y-75514342D02*
X81964285Y-75609580D01*
X81964285Y-75609580D02*
X81916666Y-75657200D01*
X81916666Y-75657200D02*
X81821428Y-75704819D01*
X81821428Y-75704819D02*
X81440476Y-75704819D01*
X81440476Y-75704819D02*
X81440476Y-74704819D01*
X81440476Y-74704819D02*
X81773809Y-74704819D01*
X81773809Y-74704819D02*
X81869047Y-74752438D01*
X81869047Y-74752438D02*
X81916666Y-74800057D01*
X81916666Y-74800057D02*
X81964285Y-74895295D01*
X81964285Y-74895295D02*
X81964285Y-74990533D01*
X81964285Y-74990533D02*
X81916666Y-75085771D01*
X81916666Y-75085771D02*
X81869047Y-75133390D01*
X81869047Y-75133390D02*
X81773809Y-75181009D01*
X81773809Y-75181009D02*
X81440476Y-75181009D01*
X82964285Y-75704819D02*
X82392857Y-75704819D01*
X82678571Y-75704819D02*
X82678571Y-74704819D01*
X82678571Y-74704819D02*
X82583333Y-74847676D01*
X82583333Y-74847676D02*
X82488095Y-74942914D01*
X82488095Y-74942914D02*
X82392857Y-74990533D01*
X92333333Y-90359580D02*
X92285714Y-90407200D01*
X92285714Y-90407200D02*
X92142857Y-90454819D01*
X92142857Y-90454819D02*
X92047619Y-90454819D01*
X92047619Y-90454819D02*
X91904762Y-90407200D01*
X91904762Y-90407200D02*
X91809524Y-90311961D01*
X91809524Y-90311961D02*
X91761905Y-90216723D01*
X91761905Y-90216723D02*
X91714286Y-90026247D01*
X91714286Y-90026247D02*
X91714286Y-89883390D01*
X91714286Y-89883390D02*
X91761905Y-89692914D01*
X91761905Y-89692914D02*
X91809524Y-89597676D01*
X91809524Y-89597676D02*
X91904762Y-89502438D01*
X91904762Y-89502438D02*
X92047619Y-89454819D01*
X92047619Y-89454819D02*
X92142857Y-89454819D01*
X92142857Y-89454819D02*
X92285714Y-89502438D01*
X92285714Y-89502438D02*
X92333333Y-89550057D01*
X92809524Y-90454819D02*
X93000000Y-90454819D01*
X93000000Y-90454819D02*
X93095238Y-90407200D01*
X93095238Y-90407200D02*
X93142857Y-90359580D01*
X93142857Y-90359580D02*
X93238095Y-90216723D01*
X93238095Y-90216723D02*
X93285714Y-90026247D01*
X93285714Y-90026247D02*
X93285714Y-89645295D01*
X93285714Y-89645295D02*
X93238095Y-89550057D01*
X93238095Y-89550057D02*
X93190476Y-89502438D01*
X93190476Y-89502438D02*
X93095238Y-89454819D01*
X93095238Y-89454819D02*
X92904762Y-89454819D01*
X92904762Y-89454819D02*
X92809524Y-89502438D01*
X92809524Y-89502438D02*
X92761905Y-89550057D01*
X92761905Y-89550057D02*
X92714286Y-89645295D01*
X92714286Y-89645295D02*
X92714286Y-89883390D01*
X92714286Y-89883390D02*
X92761905Y-89978628D01*
X92761905Y-89978628D02*
X92809524Y-90026247D01*
X92809524Y-90026247D02*
X92904762Y-90073866D01*
X92904762Y-90073866D02*
X93095238Y-90073866D01*
X93095238Y-90073866D02*
X93190476Y-90026247D01*
X93190476Y-90026247D02*
X93238095Y-89978628D01*
X93238095Y-89978628D02*
X93285714Y-89883390D01*
X92988095Y-70954819D02*
X92988095Y-71764342D01*
X92988095Y-71764342D02*
X93035714Y-71859580D01*
X93035714Y-71859580D02*
X93083333Y-71907200D01*
X93083333Y-71907200D02*
X93178571Y-71954819D01*
X93178571Y-71954819D02*
X93369047Y-71954819D01*
X93369047Y-71954819D02*
X93464285Y-71907200D01*
X93464285Y-71907200D02*
X93511904Y-71859580D01*
X93511904Y-71859580D02*
X93559523Y-71764342D01*
X93559523Y-71764342D02*
X93559523Y-70954819D01*
X94559523Y-71954819D02*
X93988095Y-71954819D01*
X94273809Y-71954819D02*
X94273809Y-70954819D01*
X94273809Y-70954819D02*
X94178571Y-71097676D01*
X94178571Y-71097676D02*
X94083333Y-71192914D01*
X94083333Y-71192914D02*
X93988095Y-71240533D01*
X88011905Y-93954819D02*
X88011905Y-92954819D01*
X88011905Y-92954819D02*
X88250000Y-92954819D01*
X88250000Y-92954819D02*
X88392857Y-93002438D01*
X88392857Y-93002438D02*
X88488095Y-93097676D01*
X88488095Y-93097676D02*
X88535714Y-93192914D01*
X88535714Y-93192914D02*
X88583333Y-93383390D01*
X88583333Y-93383390D02*
X88583333Y-93526247D01*
X88583333Y-93526247D02*
X88535714Y-93716723D01*
X88535714Y-93716723D02*
X88488095Y-93811961D01*
X88488095Y-93811961D02*
X88392857Y-93907200D01*
X88392857Y-93907200D02*
X88250000Y-93954819D01*
X88250000Y-93954819D02*
X88011905Y-93954819D01*
X89535714Y-93954819D02*
X88964286Y-93954819D01*
X89250000Y-93954819D02*
X89250000Y-92954819D01*
X89250000Y-92954819D02*
X89154762Y-93097676D01*
X89154762Y-93097676D02*
X89059524Y-93192914D01*
X89059524Y-93192914D02*
X88964286Y-93240533D01*
X86583333Y-70359580D02*
X86535714Y-70407200D01*
X86535714Y-70407200D02*
X86392857Y-70454819D01*
X86392857Y-70454819D02*
X86297619Y-70454819D01*
X86297619Y-70454819D02*
X86154762Y-70407200D01*
X86154762Y-70407200D02*
X86059524Y-70311961D01*
X86059524Y-70311961D02*
X86011905Y-70216723D01*
X86011905Y-70216723D02*
X85964286Y-70026247D01*
X85964286Y-70026247D02*
X85964286Y-69883390D01*
X85964286Y-69883390D02*
X86011905Y-69692914D01*
X86011905Y-69692914D02*
X86059524Y-69597676D01*
X86059524Y-69597676D02*
X86154762Y-69502438D01*
X86154762Y-69502438D02*
X86297619Y-69454819D01*
X86297619Y-69454819D02*
X86392857Y-69454819D01*
X86392857Y-69454819D02*
X86535714Y-69502438D01*
X86535714Y-69502438D02*
X86583333Y-69550057D01*
X87440476Y-69788152D02*
X87440476Y-70454819D01*
X87202381Y-69407200D02*
X86964286Y-70121485D01*
X86964286Y-70121485D02*
X87583333Y-70121485D01*
X104333333Y-70109580D02*
X104285714Y-70157200D01*
X104285714Y-70157200D02*
X104142857Y-70204819D01*
X104142857Y-70204819D02*
X104047619Y-70204819D01*
X104047619Y-70204819D02*
X103904762Y-70157200D01*
X103904762Y-70157200D02*
X103809524Y-70061961D01*
X103809524Y-70061961D02*
X103761905Y-69966723D01*
X103761905Y-69966723D02*
X103714286Y-69776247D01*
X103714286Y-69776247D02*
X103714286Y-69633390D01*
X103714286Y-69633390D02*
X103761905Y-69442914D01*
X103761905Y-69442914D02*
X103809524Y-69347676D01*
X103809524Y-69347676D02*
X103904762Y-69252438D01*
X103904762Y-69252438D02*
X104047619Y-69204819D01*
X104047619Y-69204819D02*
X104142857Y-69204819D01*
X104142857Y-69204819D02*
X104285714Y-69252438D01*
X104285714Y-69252438D02*
X104333333Y-69300057D01*
X104666667Y-69204819D02*
X105333333Y-69204819D01*
X105333333Y-69204819D02*
X104904762Y-70204819D01*
X110583333Y-85359580D02*
X110535714Y-85407200D01*
X110535714Y-85407200D02*
X110392857Y-85454819D01*
X110392857Y-85454819D02*
X110297619Y-85454819D01*
X110297619Y-85454819D02*
X110154762Y-85407200D01*
X110154762Y-85407200D02*
X110059524Y-85311961D01*
X110059524Y-85311961D02*
X110011905Y-85216723D01*
X110011905Y-85216723D02*
X109964286Y-85026247D01*
X109964286Y-85026247D02*
X109964286Y-84883390D01*
X109964286Y-84883390D02*
X110011905Y-84692914D01*
X110011905Y-84692914D02*
X110059524Y-84597676D01*
X110059524Y-84597676D02*
X110154762Y-84502438D01*
X110154762Y-84502438D02*
X110297619Y-84454819D01*
X110297619Y-84454819D02*
X110392857Y-84454819D01*
X110392857Y-84454819D02*
X110535714Y-84502438D01*
X110535714Y-84502438D02*
X110583333Y-84550057D01*
X110916667Y-84454819D02*
X111535714Y-84454819D01*
X111535714Y-84454819D02*
X111202381Y-84835771D01*
X111202381Y-84835771D02*
X111345238Y-84835771D01*
X111345238Y-84835771D02*
X111440476Y-84883390D01*
X111440476Y-84883390D02*
X111488095Y-84931009D01*
X111488095Y-84931009D02*
X111535714Y-85026247D01*
X111535714Y-85026247D02*
X111535714Y-85264342D01*
X111535714Y-85264342D02*
X111488095Y-85359580D01*
X111488095Y-85359580D02*
X111440476Y-85407200D01*
X111440476Y-85407200D02*
X111345238Y-85454819D01*
X111345238Y-85454819D02*
X111059524Y-85454819D01*
X111059524Y-85454819D02*
X110964286Y-85407200D01*
X110964286Y-85407200D02*
X110916667Y-85359580D01*
X91392857Y-58407200D02*
X91535714Y-58454819D01*
X91535714Y-58454819D02*
X91773809Y-58454819D01*
X91773809Y-58454819D02*
X91869047Y-58407200D01*
X91869047Y-58407200D02*
X91916666Y-58359580D01*
X91916666Y-58359580D02*
X91964285Y-58264342D01*
X91964285Y-58264342D02*
X91964285Y-58169104D01*
X91964285Y-58169104D02*
X91916666Y-58073866D01*
X91916666Y-58073866D02*
X91869047Y-58026247D01*
X91869047Y-58026247D02*
X91773809Y-57978628D01*
X91773809Y-57978628D02*
X91583333Y-57931009D01*
X91583333Y-57931009D02*
X91488095Y-57883390D01*
X91488095Y-57883390D02*
X91440476Y-57835771D01*
X91440476Y-57835771D02*
X91392857Y-57740533D01*
X91392857Y-57740533D02*
X91392857Y-57645295D01*
X91392857Y-57645295D02*
X91440476Y-57550057D01*
X91440476Y-57550057D02*
X91488095Y-57502438D01*
X91488095Y-57502438D02*
X91583333Y-57454819D01*
X91583333Y-57454819D02*
X91821428Y-57454819D01*
X91821428Y-57454819D02*
X91964285Y-57502438D01*
X92297619Y-57454819D02*
X92535714Y-58454819D01*
X92535714Y-58454819D02*
X92726190Y-57740533D01*
X92726190Y-57740533D02*
X92916666Y-58454819D01*
X92916666Y-58454819D02*
X93154762Y-57454819D01*
X93535714Y-58454819D02*
X93535714Y-57454819D01*
X93535714Y-57454819D02*
X93773809Y-57454819D01*
X93773809Y-57454819D02*
X93916666Y-57502438D01*
X93916666Y-57502438D02*
X94011904Y-57597676D01*
X94011904Y-57597676D02*
X94059523Y-57692914D01*
X94059523Y-57692914D02*
X94107142Y-57883390D01*
X94107142Y-57883390D02*
X94107142Y-58026247D01*
X94107142Y-58026247D02*
X94059523Y-58216723D01*
X94059523Y-58216723D02*
X94011904Y-58311961D01*
X94011904Y-58311961D02*
X93916666Y-58407200D01*
X93916666Y-58407200D02*
X93773809Y-58454819D01*
X93773809Y-58454819D02*
X93535714Y-58454819D01*
X92011905Y-93954819D02*
X92011905Y-92954819D01*
X92011905Y-92954819D02*
X92250000Y-92954819D01*
X92250000Y-92954819D02*
X92392857Y-93002438D01*
X92392857Y-93002438D02*
X92488095Y-93097676D01*
X92488095Y-93097676D02*
X92535714Y-93192914D01*
X92535714Y-93192914D02*
X92583333Y-93383390D01*
X92583333Y-93383390D02*
X92583333Y-93526247D01*
X92583333Y-93526247D02*
X92535714Y-93716723D01*
X92535714Y-93716723D02*
X92488095Y-93811961D01*
X92488095Y-93811961D02*
X92392857Y-93907200D01*
X92392857Y-93907200D02*
X92250000Y-93954819D01*
X92250000Y-93954819D02*
X92011905Y-93954819D01*
X92964286Y-93050057D02*
X93011905Y-93002438D01*
X93011905Y-93002438D02*
X93107143Y-92954819D01*
X93107143Y-92954819D02*
X93345238Y-92954819D01*
X93345238Y-92954819D02*
X93440476Y-93002438D01*
X93440476Y-93002438D02*
X93488095Y-93050057D01*
X93488095Y-93050057D02*
X93535714Y-93145295D01*
X93535714Y-93145295D02*
X93535714Y-93240533D01*
X93535714Y-93240533D02*
X93488095Y-93383390D01*
X93488095Y-93383390D02*
X92916667Y-93954819D01*
X92916667Y-93954819D02*
X93535714Y-93954819D01*
X99833333Y-90359580D02*
X99785714Y-90407200D01*
X99785714Y-90407200D02*
X99642857Y-90454819D01*
X99642857Y-90454819D02*
X99547619Y-90454819D01*
X99547619Y-90454819D02*
X99404762Y-90407200D01*
X99404762Y-90407200D02*
X99309524Y-90311961D01*
X99309524Y-90311961D02*
X99261905Y-90216723D01*
X99261905Y-90216723D02*
X99214286Y-90026247D01*
X99214286Y-90026247D02*
X99214286Y-89883390D01*
X99214286Y-89883390D02*
X99261905Y-89692914D01*
X99261905Y-89692914D02*
X99309524Y-89597676D01*
X99309524Y-89597676D02*
X99404762Y-89502438D01*
X99404762Y-89502438D02*
X99547619Y-89454819D01*
X99547619Y-89454819D02*
X99642857Y-89454819D01*
X99642857Y-89454819D02*
X99785714Y-89502438D01*
X99785714Y-89502438D02*
X99833333Y-89550057D01*
X100690476Y-89454819D02*
X100500000Y-89454819D01*
X100500000Y-89454819D02*
X100404762Y-89502438D01*
X100404762Y-89502438D02*
X100357143Y-89550057D01*
X100357143Y-89550057D02*
X100261905Y-89692914D01*
X100261905Y-89692914D02*
X100214286Y-89883390D01*
X100214286Y-89883390D02*
X100214286Y-90264342D01*
X100214286Y-90264342D02*
X100261905Y-90359580D01*
X100261905Y-90359580D02*
X100309524Y-90407200D01*
X100309524Y-90407200D02*
X100404762Y-90454819D01*
X100404762Y-90454819D02*
X100595238Y-90454819D01*
X100595238Y-90454819D02*
X100690476Y-90407200D01*
X100690476Y-90407200D02*
X100738095Y-90359580D01*
X100738095Y-90359580D02*
X100785714Y-90264342D01*
X100785714Y-90264342D02*
X100785714Y-90026247D01*
X100785714Y-90026247D02*
X100738095Y-89931009D01*
X100738095Y-89931009D02*
X100690476Y-89883390D01*
X100690476Y-89883390D02*
X100595238Y-89835771D01*
X100595238Y-89835771D02*
X100404762Y-89835771D01*
X100404762Y-89835771D02*
X100309524Y-89883390D01*
X100309524Y-89883390D02*
X100261905Y-89931009D01*
X100261905Y-89931009D02*
X100214286Y-90026247D01*
X72773348Y-70038616D02*
X72773348Y-70515268D01*
X72439692Y-69514299D02*
X72773348Y-70038616D01*
X72773348Y-70038616D02*
X73107005Y-69514299D01*
X73964978Y-70515268D02*
X73392995Y-70515268D01*
X73678986Y-70515268D02*
X73678986Y-69514299D01*
X73678986Y-69514299D02*
X73583656Y-69657294D01*
X73583656Y-69657294D02*
X73488326Y-69752625D01*
X73488326Y-69752625D02*
X73392995Y-69800290D01*
X78107142Y-69859580D02*
X78059523Y-69907200D01*
X78059523Y-69907200D02*
X77916666Y-69954819D01*
X77916666Y-69954819D02*
X77821428Y-69954819D01*
X77821428Y-69954819D02*
X77678571Y-69907200D01*
X77678571Y-69907200D02*
X77583333Y-69811961D01*
X77583333Y-69811961D02*
X77535714Y-69716723D01*
X77535714Y-69716723D02*
X77488095Y-69526247D01*
X77488095Y-69526247D02*
X77488095Y-69383390D01*
X77488095Y-69383390D02*
X77535714Y-69192914D01*
X77535714Y-69192914D02*
X77583333Y-69097676D01*
X77583333Y-69097676D02*
X77678571Y-69002438D01*
X77678571Y-69002438D02*
X77821428Y-68954819D01*
X77821428Y-68954819D02*
X77916666Y-68954819D01*
X77916666Y-68954819D02*
X78059523Y-69002438D01*
X78059523Y-69002438D02*
X78107142Y-69050057D01*
X79059523Y-69954819D02*
X78488095Y-69954819D01*
X78773809Y-69954819D02*
X78773809Y-68954819D01*
X78773809Y-68954819D02*
X78678571Y-69097676D01*
X78678571Y-69097676D02*
X78583333Y-69192914D01*
X78583333Y-69192914D02*
X78488095Y-69240533D01*
X79440476Y-69050057D02*
X79488095Y-69002438D01*
X79488095Y-69002438D02*
X79583333Y-68954819D01*
X79583333Y-68954819D02*
X79821428Y-68954819D01*
X79821428Y-68954819D02*
X79916666Y-69002438D01*
X79916666Y-69002438D02*
X79964285Y-69050057D01*
X79964285Y-69050057D02*
X80011904Y-69145295D01*
X80011904Y-69145295D02*
X80011904Y-69240533D01*
X80011904Y-69240533D02*
X79964285Y-69383390D01*
X79964285Y-69383390D02*
X79392857Y-69954819D01*
X79392857Y-69954819D02*
X80011904Y-69954819D01*
X125833333Y-58414819D02*
X125500000Y-57938628D01*
X125261905Y-58414819D02*
X125261905Y-57414819D01*
X125261905Y-57414819D02*
X125642857Y-57414819D01*
X125642857Y-57414819D02*
X125738095Y-57462438D01*
X125738095Y-57462438D02*
X125785714Y-57510057D01*
X125785714Y-57510057D02*
X125833333Y-57605295D01*
X125833333Y-57605295D02*
X125833333Y-57748152D01*
X125833333Y-57748152D02*
X125785714Y-57843390D01*
X125785714Y-57843390D02*
X125738095Y-57891009D01*
X125738095Y-57891009D02*
X125642857Y-57938628D01*
X125642857Y-57938628D02*
X125261905Y-57938628D01*
X126166667Y-57414819D02*
X126833333Y-58414819D01*
X126833333Y-57414819D02*
X126166667Y-58414819D01*
X101035714Y-93669104D02*
X101511904Y-93669104D01*
X100940476Y-93954819D02*
X101273809Y-92954819D01*
X101273809Y-92954819D02*
X101607142Y-93954819D01*
X102464285Y-93954819D02*
X101892857Y-93954819D01*
X102178571Y-93954819D02*
X102178571Y-92954819D01*
X102178571Y-92954819D02*
X102083333Y-93097676D01*
X102083333Y-93097676D02*
X101988095Y-93192914D01*
X101988095Y-93192914D02*
X101892857Y-93240533D01*
X115393095Y-72999819D02*
X115393095Y-73809342D01*
X115393095Y-73809342D02*
X115440714Y-73904580D01*
X115440714Y-73904580D02*
X115488333Y-73952200D01*
X115488333Y-73952200D02*
X115583571Y-73999819D01*
X115583571Y-73999819D02*
X115774047Y-73999819D01*
X115774047Y-73999819D02*
X115869285Y-73952200D01*
X115869285Y-73952200D02*
X115916904Y-73904580D01*
X115916904Y-73904580D02*
X115964523Y-73809342D01*
X115964523Y-73809342D02*
X115964523Y-72999819D01*
X116393095Y-73095057D02*
X116440714Y-73047438D01*
X116440714Y-73047438D02*
X116535952Y-72999819D01*
X116535952Y-72999819D02*
X116774047Y-72999819D01*
X116774047Y-72999819D02*
X116869285Y-73047438D01*
X116869285Y-73047438D02*
X116916904Y-73095057D01*
X116916904Y-73095057D02*
X116964523Y-73190295D01*
X116964523Y-73190295D02*
X116964523Y-73285533D01*
X116964523Y-73285533D02*
X116916904Y-73428390D01*
X116916904Y-73428390D02*
X116345476Y-73999819D01*
X116345476Y-73999819D02*
X116964523Y-73999819D01*
X78107142Y-80859580D02*
X78059523Y-80907200D01*
X78059523Y-80907200D02*
X77916666Y-80954819D01*
X77916666Y-80954819D02*
X77821428Y-80954819D01*
X77821428Y-80954819D02*
X77678571Y-80907200D01*
X77678571Y-80907200D02*
X77583333Y-80811961D01*
X77583333Y-80811961D02*
X77535714Y-80716723D01*
X77535714Y-80716723D02*
X77488095Y-80526247D01*
X77488095Y-80526247D02*
X77488095Y-80383390D01*
X77488095Y-80383390D02*
X77535714Y-80192914D01*
X77535714Y-80192914D02*
X77583333Y-80097676D01*
X77583333Y-80097676D02*
X77678571Y-80002438D01*
X77678571Y-80002438D02*
X77821428Y-79954819D01*
X77821428Y-79954819D02*
X77916666Y-79954819D01*
X77916666Y-79954819D02*
X78059523Y-80002438D01*
X78059523Y-80002438D02*
X78107142Y-80050057D01*
X79059523Y-80954819D02*
X78488095Y-80954819D01*
X78773809Y-80954819D02*
X78773809Y-79954819D01*
X78773809Y-79954819D02*
X78678571Y-80097676D01*
X78678571Y-80097676D02*
X78583333Y-80192914D01*
X78583333Y-80192914D02*
X78488095Y-80240533D01*
X79392857Y-79954819D02*
X80011904Y-79954819D01*
X80011904Y-79954819D02*
X79678571Y-80335771D01*
X79678571Y-80335771D02*
X79821428Y-80335771D01*
X79821428Y-80335771D02*
X79916666Y-80383390D01*
X79916666Y-80383390D02*
X79964285Y-80431009D01*
X79964285Y-80431009D02*
X80011904Y-80526247D01*
X80011904Y-80526247D02*
X80011904Y-80764342D01*
X80011904Y-80764342D02*
X79964285Y-80859580D01*
X79964285Y-80859580D02*
X79916666Y-80907200D01*
X79916666Y-80907200D02*
X79821428Y-80954819D01*
X79821428Y-80954819D02*
X79535714Y-80954819D01*
X79535714Y-80954819D02*
X79440476Y-80907200D01*
X79440476Y-80907200D02*
X79392857Y-80859580D01*
X97833333Y-62954819D02*
X97500000Y-62478628D01*
X97261905Y-62954819D02*
X97261905Y-61954819D01*
X97261905Y-61954819D02*
X97642857Y-61954819D01*
X97642857Y-61954819D02*
X97738095Y-62002438D01*
X97738095Y-62002438D02*
X97785714Y-62050057D01*
X97785714Y-62050057D02*
X97833333Y-62145295D01*
X97833333Y-62145295D02*
X97833333Y-62288152D01*
X97833333Y-62288152D02*
X97785714Y-62383390D01*
X97785714Y-62383390D02*
X97738095Y-62431009D01*
X97738095Y-62431009D02*
X97642857Y-62478628D01*
X97642857Y-62478628D02*
X97261905Y-62478628D01*
X98214286Y-62050057D02*
X98261905Y-62002438D01*
X98261905Y-62002438D02*
X98357143Y-61954819D01*
X98357143Y-61954819D02*
X98595238Y-61954819D01*
X98595238Y-61954819D02*
X98690476Y-62002438D01*
X98690476Y-62002438D02*
X98738095Y-62050057D01*
X98738095Y-62050057D02*
X98785714Y-62145295D01*
X98785714Y-62145295D02*
X98785714Y-62240533D01*
X98785714Y-62240533D02*
X98738095Y-62383390D01*
X98738095Y-62383390D02*
X98166667Y-62954819D01*
X98166667Y-62954819D02*
X98785714Y-62954819D01*
X92583333Y-62859580D02*
X92535714Y-62907200D01*
X92535714Y-62907200D02*
X92392857Y-62954819D01*
X92392857Y-62954819D02*
X92297619Y-62954819D01*
X92297619Y-62954819D02*
X92154762Y-62907200D01*
X92154762Y-62907200D02*
X92059524Y-62811961D01*
X92059524Y-62811961D02*
X92011905Y-62716723D01*
X92011905Y-62716723D02*
X91964286Y-62526247D01*
X91964286Y-62526247D02*
X91964286Y-62383390D01*
X91964286Y-62383390D02*
X92011905Y-62192914D01*
X92011905Y-62192914D02*
X92059524Y-62097676D01*
X92059524Y-62097676D02*
X92154762Y-62002438D01*
X92154762Y-62002438D02*
X92297619Y-61954819D01*
X92297619Y-61954819D02*
X92392857Y-61954819D01*
X92392857Y-61954819D02*
X92535714Y-62002438D01*
X92535714Y-62002438D02*
X92583333Y-62050057D01*
X93488095Y-61954819D02*
X93011905Y-61954819D01*
X93011905Y-61954819D02*
X92964286Y-62431009D01*
X92964286Y-62431009D02*
X93011905Y-62383390D01*
X93011905Y-62383390D02*
X93107143Y-62335771D01*
X93107143Y-62335771D02*
X93345238Y-62335771D01*
X93345238Y-62335771D02*
X93440476Y-62383390D01*
X93440476Y-62383390D02*
X93488095Y-62431009D01*
X93488095Y-62431009D02*
X93535714Y-62526247D01*
X93535714Y-62526247D02*
X93535714Y-62764342D01*
X93535714Y-62764342D02*
X93488095Y-62859580D01*
X93488095Y-62859580D02*
X93440476Y-62907200D01*
X93440476Y-62907200D02*
X93345238Y-62954819D01*
X93345238Y-62954819D02*
X93107143Y-62954819D01*
X93107143Y-62954819D02*
X93011905Y-62907200D01*
X93011905Y-62907200D02*
X92964286Y-62859580D01*
X82833333Y-90609580D02*
X82785714Y-90657200D01*
X82785714Y-90657200D02*
X82642857Y-90704819D01*
X82642857Y-90704819D02*
X82547619Y-90704819D01*
X82547619Y-90704819D02*
X82404762Y-90657200D01*
X82404762Y-90657200D02*
X82309524Y-90561961D01*
X82309524Y-90561961D02*
X82261905Y-90466723D01*
X82261905Y-90466723D02*
X82214286Y-90276247D01*
X82214286Y-90276247D02*
X82214286Y-90133390D01*
X82214286Y-90133390D02*
X82261905Y-89942914D01*
X82261905Y-89942914D02*
X82309524Y-89847676D01*
X82309524Y-89847676D02*
X82404762Y-89752438D01*
X82404762Y-89752438D02*
X82547619Y-89704819D01*
X82547619Y-89704819D02*
X82642857Y-89704819D01*
X82642857Y-89704819D02*
X82785714Y-89752438D01*
X82785714Y-89752438D02*
X82833333Y-89800057D01*
X83404762Y-90133390D02*
X83309524Y-90085771D01*
X83309524Y-90085771D02*
X83261905Y-90038152D01*
X83261905Y-90038152D02*
X83214286Y-89942914D01*
X83214286Y-89942914D02*
X83214286Y-89895295D01*
X83214286Y-89895295D02*
X83261905Y-89800057D01*
X83261905Y-89800057D02*
X83309524Y-89752438D01*
X83309524Y-89752438D02*
X83404762Y-89704819D01*
X83404762Y-89704819D02*
X83595238Y-89704819D01*
X83595238Y-89704819D02*
X83690476Y-89752438D01*
X83690476Y-89752438D02*
X83738095Y-89800057D01*
X83738095Y-89800057D02*
X83785714Y-89895295D01*
X83785714Y-89895295D02*
X83785714Y-89942914D01*
X83785714Y-89942914D02*
X83738095Y-90038152D01*
X83738095Y-90038152D02*
X83690476Y-90085771D01*
X83690476Y-90085771D02*
X83595238Y-90133390D01*
X83595238Y-90133390D02*
X83404762Y-90133390D01*
X83404762Y-90133390D02*
X83309524Y-90181009D01*
X83309524Y-90181009D02*
X83261905Y-90228628D01*
X83261905Y-90228628D02*
X83214286Y-90323866D01*
X83214286Y-90323866D02*
X83214286Y-90514342D01*
X83214286Y-90514342D02*
X83261905Y-90609580D01*
X83261905Y-90609580D02*
X83309524Y-90657200D01*
X83309524Y-90657200D02*
X83404762Y-90704819D01*
X83404762Y-90704819D02*
X83595238Y-90704819D01*
X83595238Y-90704819D02*
X83690476Y-90657200D01*
X83690476Y-90657200D02*
X83738095Y-90609580D01*
X83738095Y-90609580D02*
X83785714Y-90514342D01*
X83785714Y-90514342D02*
X83785714Y-90323866D01*
X83785714Y-90323866D02*
X83738095Y-90228628D01*
X83738095Y-90228628D02*
X83690476Y-90181009D01*
X83690476Y-90181009D02*
X83595238Y-90133390D01*
X104107142Y-85359580D02*
X104059523Y-85407200D01*
X104059523Y-85407200D02*
X103916666Y-85454819D01*
X103916666Y-85454819D02*
X103821428Y-85454819D01*
X103821428Y-85454819D02*
X103678571Y-85407200D01*
X103678571Y-85407200D02*
X103583333Y-85311961D01*
X103583333Y-85311961D02*
X103535714Y-85216723D01*
X103535714Y-85216723D02*
X103488095Y-85026247D01*
X103488095Y-85026247D02*
X103488095Y-84883390D01*
X103488095Y-84883390D02*
X103535714Y-84692914D01*
X103535714Y-84692914D02*
X103583333Y-84597676D01*
X103583333Y-84597676D02*
X103678571Y-84502438D01*
X103678571Y-84502438D02*
X103821428Y-84454819D01*
X103821428Y-84454819D02*
X103916666Y-84454819D01*
X103916666Y-84454819D02*
X104059523Y-84502438D01*
X104059523Y-84502438D02*
X104107142Y-84550057D01*
X105059523Y-85454819D02*
X104488095Y-85454819D01*
X104773809Y-85454819D02*
X104773809Y-84454819D01*
X104773809Y-84454819D02*
X104678571Y-84597676D01*
X104678571Y-84597676D02*
X104583333Y-84692914D01*
X104583333Y-84692914D02*
X104488095Y-84740533D01*
X105678571Y-84454819D02*
X105773809Y-84454819D01*
X105773809Y-84454819D02*
X105869047Y-84502438D01*
X105869047Y-84502438D02*
X105916666Y-84550057D01*
X105916666Y-84550057D02*
X105964285Y-84645295D01*
X105964285Y-84645295D02*
X106011904Y-84835771D01*
X106011904Y-84835771D02*
X106011904Y-85073866D01*
X106011904Y-85073866D02*
X105964285Y-85264342D01*
X105964285Y-85264342D02*
X105916666Y-85359580D01*
X105916666Y-85359580D02*
X105869047Y-85407200D01*
X105869047Y-85407200D02*
X105773809Y-85454819D01*
X105773809Y-85454819D02*
X105678571Y-85454819D01*
X105678571Y-85454819D02*
X105583333Y-85407200D01*
X105583333Y-85407200D02*
X105535714Y-85359580D01*
X105535714Y-85359580D02*
X105488095Y-85264342D01*
X105488095Y-85264342D02*
X105440476Y-85073866D01*
X105440476Y-85073866D02*
X105440476Y-84835771D01*
X105440476Y-84835771D02*
X105488095Y-84645295D01*
X105488095Y-84645295D02*
X105535714Y-84550057D01*
X105535714Y-84550057D02*
X105583333Y-84502438D01*
X105583333Y-84502438D02*
X105678571Y-84454819D01*
X123454819Y-83261904D02*
X124264342Y-83261904D01*
X124264342Y-83261904D02*
X124359580Y-83214285D01*
X124359580Y-83214285D02*
X124407200Y-83166666D01*
X124407200Y-83166666D02*
X124454819Y-83071428D01*
X124454819Y-83071428D02*
X124454819Y-82880952D01*
X124454819Y-82880952D02*
X124407200Y-82785714D01*
X124407200Y-82785714D02*
X124359580Y-82738095D01*
X124359580Y-82738095D02*
X124264342Y-82690476D01*
X124264342Y-82690476D02*
X123454819Y-82690476D01*
X124407200Y-82261904D02*
X124454819Y-82119047D01*
X124454819Y-82119047D02*
X124454819Y-81880952D01*
X124454819Y-81880952D02*
X124407200Y-81785714D01*
X124407200Y-81785714D02*
X124359580Y-81738095D01*
X124359580Y-81738095D02*
X124264342Y-81690476D01*
X124264342Y-81690476D02*
X124169104Y-81690476D01*
X124169104Y-81690476D02*
X124073866Y-81738095D01*
X124073866Y-81738095D02*
X124026247Y-81785714D01*
X124026247Y-81785714D02*
X123978628Y-81880952D01*
X123978628Y-81880952D02*
X123931009Y-82071428D01*
X123931009Y-82071428D02*
X123883390Y-82166666D01*
X123883390Y-82166666D02*
X123835771Y-82214285D01*
X123835771Y-82214285D02*
X123740533Y-82261904D01*
X123740533Y-82261904D02*
X123645295Y-82261904D01*
X123645295Y-82261904D02*
X123550057Y-82214285D01*
X123550057Y-82214285D02*
X123502438Y-82166666D01*
X123502438Y-82166666D02*
X123454819Y-82071428D01*
X123454819Y-82071428D02*
X123454819Y-81833333D01*
X123454819Y-81833333D02*
X123502438Y-81690476D01*
X123931009Y-80928571D02*
X123978628Y-80785714D01*
X123978628Y-80785714D02*
X124026247Y-80738095D01*
X124026247Y-80738095D02*
X124121485Y-80690476D01*
X124121485Y-80690476D02*
X124264342Y-80690476D01*
X124264342Y-80690476D02*
X124359580Y-80738095D01*
X124359580Y-80738095D02*
X124407200Y-80785714D01*
X124407200Y-80785714D02*
X124454819Y-80880952D01*
X124454819Y-80880952D02*
X124454819Y-81261904D01*
X124454819Y-81261904D02*
X123454819Y-81261904D01*
X123454819Y-81261904D02*
X123454819Y-80928571D01*
X123454819Y-80928571D02*
X123502438Y-80833333D01*
X123502438Y-80833333D02*
X123550057Y-80785714D01*
X123550057Y-80785714D02*
X123645295Y-80738095D01*
X123645295Y-80738095D02*
X123740533Y-80738095D01*
X123740533Y-80738095D02*
X123835771Y-80785714D01*
X123835771Y-80785714D02*
X123883390Y-80833333D01*
X123883390Y-80833333D02*
X123931009Y-80928571D01*
X123931009Y-80928571D02*
X123931009Y-81261904D01*
X87107142Y-81359580D02*
X87059523Y-81407200D01*
X87059523Y-81407200D02*
X86916666Y-81454819D01*
X86916666Y-81454819D02*
X86821428Y-81454819D01*
X86821428Y-81454819D02*
X86678571Y-81407200D01*
X86678571Y-81407200D02*
X86583333Y-81311961D01*
X86583333Y-81311961D02*
X86535714Y-81216723D01*
X86535714Y-81216723D02*
X86488095Y-81026247D01*
X86488095Y-81026247D02*
X86488095Y-80883390D01*
X86488095Y-80883390D02*
X86535714Y-80692914D01*
X86535714Y-80692914D02*
X86583333Y-80597676D01*
X86583333Y-80597676D02*
X86678571Y-80502438D01*
X86678571Y-80502438D02*
X86821428Y-80454819D01*
X86821428Y-80454819D02*
X86916666Y-80454819D01*
X86916666Y-80454819D02*
X87059523Y-80502438D01*
X87059523Y-80502438D02*
X87107142Y-80550057D01*
X88059523Y-81454819D02*
X87488095Y-81454819D01*
X87773809Y-81454819D02*
X87773809Y-80454819D01*
X87773809Y-80454819D02*
X87678571Y-80597676D01*
X87678571Y-80597676D02*
X87583333Y-80692914D01*
X87583333Y-80692914D02*
X87488095Y-80740533D01*
X89011904Y-81454819D02*
X88440476Y-81454819D01*
X88726190Y-81454819D02*
X88726190Y-80454819D01*
X88726190Y-80454819D02*
X88630952Y-80597676D01*
X88630952Y-80597676D02*
X88535714Y-80692914D01*
X88535714Y-80692914D02*
X88440476Y-80740533D01*
X107638333Y-85354580D02*
X107590714Y-85402200D01*
X107590714Y-85402200D02*
X107447857Y-85449819D01*
X107447857Y-85449819D02*
X107352619Y-85449819D01*
X107352619Y-85449819D02*
X107209762Y-85402200D01*
X107209762Y-85402200D02*
X107114524Y-85306961D01*
X107114524Y-85306961D02*
X107066905Y-85211723D01*
X107066905Y-85211723D02*
X107019286Y-85021247D01*
X107019286Y-85021247D02*
X107019286Y-84878390D01*
X107019286Y-84878390D02*
X107066905Y-84687914D01*
X107066905Y-84687914D02*
X107114524Y-84592676D01*
X107114524Y-84592676D02*
X107209762Y-84497438D01*
X107209762Y-84497438D02*
X107352619Y-84449819D01*
X107352619Y-84449819D02*
X107447857Y-84449819D01*
X107447857Y-84449819D02*
X107590714Y-84497438D01*
X107590714Y-84497438D02*
X107638333Y-84545057D01*
X108019286Y-84545057D02*
X108066905Y-84497438D01*
X108066905Y-84497438D02*
X108162143Y-84449819D01*
X108162143Y-84449819D02*
X108400238Y-84449819D01*
X108400238Y-84449819D02*
X108495476Y-84497438D01*
X108495476Y-84497438D02*
X108543095Y-84545057D01*
X108543095Y-84545057D02*
X108590714Y-84640295D01*
X108590714Y-84640295D02*
X108590714Y-84735533D01*
X108590714Y-84735533D02*
X108543095Y-84878390D01*
X108543095Y-84878390D02*
X107971667Y-85449819D01*
X107971667Y-85449819D02*
X108590714Y-85449819D01*
D12*
%TO.C,TX*%
X124670000Y-65580000D02*
X124670000Y-64250000D01*
X126000000Y-65580000D02*
X124670000Y-65580000D01*
X127270000Y-62920000D02*
X127330000Y-62920000D01*
X127270000Y-65580000D02*
X127270000Y-62920000D01*
X127270000Y-65580000D02*
X127330000Y-65580000D01*
X127330000Y-65580000D02*
X127330000Y-62920000D01*
%TO.C,C1*%
X111845000Y-68415000D02*
X111845000Y-71655000D01*
X111910000Y-68415000D02*
X111845000Y-68415000D01*
X111910000Y-71655000D02*
X111845000Y-71655000D01*
X114085000Y-68415000D02*
X114020000Y-68415000D01*
X114085000Y-68415000D02*
X114085000Y-71655000D01*
X114085000Y-71655000D02*
X114020000Y-71655000D01*
%TO.C,FB1*%
X81580000Y-76130000D02*
X81580000Y-81370000D01*
X81580000Y-81370000D02*
X85420000Y-81370000D01*
X83500000Y-74750000D02*
X83500000Y-76130000D01*
X83500000Y-82750000D02*
X83500000Y-81370000D01*
X85420000Y-76130000D02*
X81580000Y-76130000D01*
X85420000Y-81370000D02*
X85420000Y-76130000D01*
%TO.C,C9*%
X91130000Y-86880000D02*
X91130000Y-86945000D01*
X91130000Y-86880000D02*
X94370000Y-86880000D01*
X91130000Y-89055000D02*
X91130000Y-89120000D01*
X91130000Y-89120000D02*
X94370000Y-89120000D01*
X94370000Y-86880000D02*
X94370000Y-86945000D01*
X94370000Y-89055000D02*
X94370000Y-89120000D01*
%TO.C,U1*%
X94140000Y-73890000D02*
X94140000Y-74340000D01*
X94140000Y-81110000D02*
X94140000Y-80660000D01*
X94590000Y-73890000D02*
X94140000Y-73890000D01*
X94590000Y-81110000D02*
X94140000Y-81110000D01*
X100910000Y-73890000D02*
X101360000Y-73890000D01*
X100910000Y-81110000D02*
X101360000Y-81110000D01*
X101360000Y-73890000D02*
X101360000Y-74340000D01*
X101360000Y-81110000D02*
X101360000Y-80660000D01*
X93550000Y-74340000D02*
X93210000Y-73870000D01*
X93890000Y-73870000D01*
X93550000Y-74340000D01*
G36*
X93550000Y-74340000D02*
G01*
X93210000Y-73870000D01*
X93890000Y-73870000D01*
X93550000Y-74340000D01*
G37*
%TO.C,D1*%
X88870000Y-96830000D02*
X88870000Y-95500000D01*
X90200000Y-96830000D02*
X88870000Y-96830000D01*
X91470000Y-94170000D02*
X91530000Y-94170000D01*
X91470000Y-96830000D02*
X91470000Y-94170000D01*
X91470000Y-96830000D02*
X91530000Y-96830000D01*
X91530000Y-96830000D02*
X91530000Y-94170000D01*
%TO.C,C4*%
X86630000Y-71130000D02*
X86695000Y-71130000D01*
X86630000Y-74370000D02*
X86630000Y-71130000D01*
X86630000Y-74370000D02*
X86695000Y-74370000D01*
X88805000Y-71130000D02*
X88870000Y-71130000D01*
X88805000Y-74370000D02*
X88870000Y-74370000D01*
X88870000Y-74370000D02*
X88870000Y-71130000D01*
D13*
%TO.C,G\u002A\u002A\u002A*%
G36*
X76017008Y-58621494D02*
G01*
X76027651Y-58642052D01*
X76024528Y-58666292D01*
X76005638Y-58705339D01*
X75968145Y-58715555D01*
X75932227Y-58706837D01*
X75921306Y-58673395D01*
X75921179Y-58666292D01*
X75927968Y-58630491D01*
X75956294Y-58617903D01*
X75977562Y-58617029D01*
X76017008Y-58621494D01*
G37*
G36*
X77332389Y-58170701D02*
G01*
X77338391Y-58197115D01*
X77334972Y-58251662D01*
X77333075Y-58268497D01*
X77314047Y-58382686D01*
X77288365Y-58458185D01*
X77256056Y-58494927D01*
X77239499Y-58498798D01*
X77207844Y-58483845D01*
X77202017Y-58460357D01*
X77206825Y-58408699D01*
X77219051Y-58341477D01*
X77235399Y-58272736D01*
X77252571Y-58216521D01*
X77265847Y-58188441D01*
X77300869Y-58166181D01*
X77315521Y-58163810D01*
X77332389Y-58170701D01*
G37*
G36*
X76471120Y-58084045D02*
G01*
X76467082Y-58108068D01*
X76458822Y-58145420D01*
X76444780Y-58211508D01*
X76427037Y-58296448D01*
X76410695Y-58375640D01*
X76390821Y-58470783D01*
X76375745Y-58533870D01*
X76362498Y-58571486D01*
X76348111Y-58590211D01*
X76329615Y-58596628D01*
X76310685Y-58597324D01*
X76271459Y-58592719D01*
X76256892Y-58582545D01*
X76261152Y-58558694D01*
X76272268Y-58504144D01*
X76288617Y-58426684D01*
X76308575Y-58334102D01*
X76311331Y-58321451D01*
X76333707Y-58220277D01*
X76350628Y-58151254D01*
X76364877Y-58107993D01*
X76379238Y-58084106D01*
X76396497Y-58073204D01*
X76419438Y-58068898D01*
X76421510Y-58068657D01*
X76460660Y-58067839D01*
X76471120Y-58084045D01*
G37*
G36*
X74634273Y-57646548D02*
G01*
X74628586Y-57676418D01*
X74616425Y-57740994D01*
X74598546Y-57836238D01*
X74575705Y-57958114D01*
X74548658Y-58102587D01*
X74518162Y-58265618D01*
X74484972Y-58443173D01*
X74449844Y-58631214D01*
X74449733Y-58631808D01*
X74414833Y-58817617D01*
X74381868Y-58991058D01*
X74351578Y-59148392D01*
X74324701Y-59285877D01*
X74301975Y-59399772D01*
X74284139Y-59486336D01*
X74271932Y-59541827D01*
X74266092Y-59562504D01*
X74265972Y-59562557D01*
X74250950Y-59547460D01*
X74218941Y-59507270D01*
X74175560Y-59449181D01*
X74151348Y-59415656D01*
X73975017Y-59135291D01*
X73832900Y-58836563D01*
X73725927Y-58522205D01*
X73655027Y-58194956D01*
X73621128Y-57857551D01*
X73620950Y-57853453D01*
X73609768Y-57592359D01*
X74127352Y-57592359D01*
X74644935Y-57592359D01*
X74634273Y-57646548D01*
G37*
G36*
X76177346Y-58330114D02*
G01*
X76177346Y-58597324D01*
X76117855Y-58597324D01*
X76077080Y-58593779D01*
X76065862Y-58576017D01*
X76071259Y-58545946D01*
X76071976Y-58496016D01*
X76056856Y-58477279D01*
X76013162Y-58461056D01*
X75978188Y-58478055D01*
X75946768Y-58528356D01*
X75917112Y-58576216D01*
X75882111Y-58595379D01*
X75858414Y-58597324D01*
X75818470Y-58595389D01*
X75802948Y-58591039D01*
X75810688Y-58571856D01*
X75831955Y-58523427D01*
X75863822Y-58452318D01*
X75903361Y-58365094D01*
X75903654Y-58364451D01*
X76021164Y-58364451D01*
X76035939Y-58377345D01*
X76044336Y-58375763D01*
X76063682Y-58352308D01*
X76074340Y-58310079D01*
X76076525Y-58271687D01*
X76068833Y-58268248D01*
X76049709Y-58290733D01*
X76025982Y-58331972D01*
X76021164Y-58364451D01*
X75903654Y-58364451D01*
X75919397Y-58329945D01*
X75965421Y-58229842D01*
X75999154Y-58159980D01*
X76024634Y-58114734D01*
X76045896Y-58088476D01*
X76066979Y-58075579D01*
X76091919Y-58070416D01*
X76106596Y-58069020D01*
X76177346Y-58062905D01*
X76177346Y-58330114D01*
G37*
G36*
X74777232Y-59097771D02*
G01*
X74820599Y-59134800D01*
X74834463Y-59197838D01*
X74833335Y-59218038D01*
X74821819Y-59262062D01*
X74791198Y-59280497D01*
X74773351Y-59283388D01*
X74734084Y-59282649D01*
X74720331Y-59260564D01*
X74719162Y-59237681D01*
X74713069Y-59200064D01*
X74688242Y-59190721D01*
X74674841Y-59192036D01*
X74635592Y-59217030D01*
X74603800Y-59279995D01*
X74579341Y-59381236D01*
X74568644Y-59456102D01*
X74562704Y-59517483D01*
X74565158Y-59549395D01*
X74578464Y-59561328D01*
X74596290Y-59562879D01*
X74635076Y-59544551D01*
X74657093Y-59503763D01*
X74679798Y-59460891D01*
X74716381Y-59445641D01*
X74738106Y-59444647D01*
X74798511Y-59444647D01*
X74768286Y-59518542D01*
X74738063Y-59575888D01*
X74702726Y-59621571D01*
X74696870Y-59626921D01*
X74646535Y-59651264D01*
X74581246Y-59661213D01*
X74516788Y-59656574D01*
X74468949Y-59637156D01*
X74461301Y-59629807D01*
X74443211Y-59582100D01*
X74439715Y-59505052D01*
X74450727Y-59405893D01*
X74464778Y-59336589D01*
X74495518Y-59229880D01*
X74532328Y-59157046D01*
X74580491Y-59112559D01*
X74645289Y-59090891D01*
X74703953Y-59086334D01*
X74777232Y-59097771D01*
G37*
G36*
X76128160Y-59097967D02*
G01*
X76175401Y-59124600D01*
X76194500Y-59173746D01*
X76193340Y-59223938D01*
X76179015Y-59265534D01*
X76141095Y-59282299D01*
X76133010Y-59283388D01*
X76093740Y-59282647D01*
X76079987Y-59260569D01*
X76078820Y-59237743D01*
X76073326Y-59200779D01*
X76048613Y-59190455D01*
X76024631Y-59192097D01*
X75985717Y-59204417D01*
X75959754Y-59237462D01*
X75944273Y-59277153D01*
X75926201Y-59345918D01*
X75911182Y-59427300D01*
X75907032Y-59459426D01*
X75901959Y-59519624D01*
X75905319Y-59550470D01*
X75919910Y-59561620D01*
X75937010Y-59562879D01*
X75978645Y-59547705D01*
X76008735Y-59519084D01*
X76035083Y-59473930D01*
X76032651Y-59450877D01*
X76002732Y-59444647D01*
X75976618Y-59435888D01*
X75974130Y-59403062D01*
X75975472Y-59395384D01*
X75985420Y-59365389D01*
X76007747Y-59350852D01*
X76053848Y-59346339D01*
X76078793Y-59346121D01*
X76172697Y-59346121D01*
X76140494Y-59498837D01*
X76108292Y-59651552D01*
X75980251Y-59654813D01*
X75909926Y-59655005D01*
X75853734Y-59652267D01*
X75826306Y-59647820D01*
X75792476Y-59615177D01*
X75779062Y-59551366D01*
X75785898Y-59455208D01*
X75793115Y-59413320D01*
X75820099Y-59291086D01*
X75849476Y-59203077D01*
X75885315Y-59144143D01*
X75931683Y-59109136D01*
X75992648Y-59092905D01*
X76048569Y-59089954D01*
X76128160Y-59097967D01*
G37*
G36*
X75763453Y-58077127D02*
G01*
X75796599Y-58098688D01*
X75804348Y-58106095D01*
X75830687Y-58139908D01*
X75839517Y-58179541D01*
X75834680Y-58240060D01*
X75811742Y-58356015D01*
X75778177Y-58455115D01*
X75737361Y-58528749D01*
X75710116Y-58557664D01*
X75663717Y-58583208D01*
X75600551Y-58595265D01*
X75541930Y-58597324D01*
X75424163Y-58597324D01*
X75437259Y-58523429D01*
X75445286Y-58482270D01*
X75560512Y-58482270D01*
X75578261Y-58497244D01*
X75600461Y-58498798D01*
X75639120Y-58487124D01*
X75668641Y-58446574D01*
X75675981Y-58430195D01*
X75695021Y-58366298D01*
X75707670Y-58290248D01*
X75709460Y-58267627D01*
X75710324Y-58210208D01*
X75702409Y-58181080D01*
X75681508Y-58169394D01*
X75670634Y-58167457D01*
X75635449Y-58172431D01*
X75615857Y-58206412D01*
X75613333Y-58215682D01*
X75609877Y-58261608D01*
X75622489Y-58277719D01*
X75643191Y-58300958D01*
X75642162Y-58336890D01*
X75622153Y-58367329D01*
X75607871Y-58374341D01*
X75575278Y-58401668D01*
X75562021Y-58441464D01*
X75560512Y-58482270D01*
X75445286Y-58482270D01*
X75448632Y-58465112D01*
X75459297Y-58419273D01*
X75460485Y-58415051D01*
X75459609Y-58386517D01*
X75449582Y-58380567D01*
X75430667Y-58366822D01*
X75433215Y-58334585D01*
X75455669Y-58297351D01*
X75459675Y-58293140D01*
X75482923Y-58255800D01*
X75505716Y-58197383D01*
X75513864Y-58168575D01*
X75536928Y-58075136D01*
X75649278Y-58069255D01*
X75718934Y-58068406D01*
X75763453Y-58077127D01*
G37*
G36*
X75502907Y-59093961D02*
G01*
X75526278Y-59111181D01*
X75541870Y-59149414D01*
X75554194Y-59216459D01*
X75558519Y-59247798D01*
X75571360Y-59317704D01*
X75585760Y-59351601D01*
X75600385Y-59348466D01*
X75613903Y-59307272D01*
X75616686Y-59292480D01*
X75632944Y-59204003D01*
X75647370Y-59147203D01*
X75663441Y-59114708D01*
X75684634Y-59099143D01*
X75710487Y-59093571D01*
X75735632Y-59092493D01*
X75752074Y-59099640D01*
X75759768Y-59120189D01*
X75758671Y-59159317D01*
X75748736Y-59222203D01*
X75729921Y-59314023D01*
X75707710Y-59415090D01*
X75685525Y-59513728D01*
X75668928Y-59580227D01*
X75654970Y-59620923D01*
X75640703Y-59642152D01*
X75623179Y-59650250D01*
X75599449Y-59651552D01*
X75597670Y-59651552D01*
X75567337Y-59649265D01*
X75547300Y-59636870D01*
X75532196Y-59606068D01*
X75516660Y-59548559D01*
X75508526Y-59513616D01*
X75489484Y-59439351D01*
X75474341Y-59404057D01*
X75461513Y-59407681D01*
X75449416Y-59450166D01*
X75439327Y-59511209D01*
X75429073Y-59573232D01*
X75418951Y-59621065D01*
X75415003Y-59634366D01*
X75390016Y-59653999D01*
X75348303Y-59661892D01*
X75311623Y-59654797D01*
X75306098Y-59650616D01*
X75305095Y-59627733D01*
X75311805Y-59576147D01*
X75324854Y-59505503D01*
X75330636Y-59478196D01*
X75350899Y-59384347D01*
X75371265Y-59288164D01*
X75387613Y-59209131D01*
X75388800Y-59203259D01*
X75403105Y-59139659D01*
X75417420Y-59105727D01*
X75438132Y-59092238D01*
X75467248Y-59089954D01*
X75502907Y-59093961D01*
G37*
G36*
X75198904Y-58941503D02*
G01*
X75227359Y-58966927D01*
X75240705Y-58990181D01*
X75261334Y-59033011D01*
X75270836Y-59058534D01*
X75270907Y-59059418D01*
X75255330Y-59069885D01*
X75220759Y-59069628D01*
X75185433Y-59060835D01*
X75167934Y-59047055D01*
X75148150Y-59034333D01*
X75136734Y-59038365D01*
X75116903Y-59060879D01*
X75115059Y-59082505D01*
X75128045Y-59087620D01*
X75196779Y-59093402D01*
X75246472Y-59130595D01*
X75269963Y-59193035D01*
X75270907Y-59210629D01*
X75266529Y-59259423D01*
X75255049Y-59330994D01*
X75238947Y-59409892D01*
X75238859Y-59410280D01*
X75205059Y-59522016D01*
X75160865Y-59598572D01*
X75103027Y-59643529D01*
X75028294Y-59660464D01*
X75011329Y-59660805D01*
X74949824Y-59655906D01*
X74900915Y-59644424D01*
X74891582Y-59640121D01*
X74866966Y-59604203D01*
X74857386Y-59537908D01*
X74858632Y-59517505D01*
X74976530Y-59517505D01*
X74979009Y-59549431D01*
X74992300Y-59561357D01*
X75009614Y-59562879D01*
X75054282Y-59549533D01*
X75072973Y-59534384D01*
X75090712Y-59498705D01*
X75110977Y-59437517D01*
X75130262Y-59364255D01*
X75145063Y-59292356D01*
X75151876Y-59235258D01*
X75151974Y-59231508D01*
X75146073Y-59199002D01*
X75119156Y-59190523D01*
X75098487Y-59192097D01*
X75057968Y-59209951D01*
X75026444Y-59255512D01*
X75002277Y-59332509D01*
X74983828Y-59444669D01*
X74982453Y-59456102D01*
X74976530Y-59517505D01*
X74858632Y-59517505D01*
X74862918Y-59447322D01*
X74883635Y-59338526D01*
X74887696Y-59322401D01*
X74914584Y-59230425D01*
X74941801Y-59168725D01*
X74974725Y-59128493D01*
X75018736Y-59100918D01*
X75024592Y-59098231D01*
X75062648Y-59080261D01*
X75066452Y-59072897D01*
X75037912Y-59071070D01*
X75034824Y-59071020D01*
X74985940Y-59070249D01*
X75045642Y-59010546D01*
X75096063Y-58970145D01*
X75146893Y-58944194D01*
X75157923Y-58941310D01*
X75198904Y-58941503D01*
G37*
G36*
X76235576Y-54159203D02*
G01*
X76591220Y-54199628D01*
X76940611Y-54274702D01*
X77280906Y-54383974D01*
X77609266Y-54526991D01*
X77922848Y-54703302D01*
X78218812Y-54912455D01*
X78468947Y-55129524D01*
X78665521Y-55326949D01*
X78832993Y-55517790D01*
X78978318Y-55711373D01*
X79108450Y-55917024D01*
X79230343Y-56144071D01*
X79240092Y-56163732D01*
X79302998Y-56300895D01*
X79364253Y-56452062D01*
X79421496Y-56609707D01*
X79472364Y-56766306D01*
X79514498Y-56914333D01*
X79545536Y-57046262D01*
X79563116Y-57154568D01*
X79566214Y-57203181D01*
X79571170Y-57242557D01*
X79581419Y-57257429D01*
X79589597Y-57276097D01*
X79595852Y-57327830D01*
X79600207Y-57406329D01*
X79602686Y-57505297D01*
X79603310Y-57618437D01*
X79602103Y-57739450D01*
X79599086Y-57862039D01*
X79594284Y-57979905D01*
X79587719Y-58086752D01*
X79579413Y-58176281D01*
X79578065Y-58187457D01*
X79512347Y-58557867D01*
X79410062Y-58915605D01*
X79272391Y-59258414D01*
X79100518Y-59584033D01*
X78895625Y-59890206D01*
X78658896Y-60174673D01*
X78408707Y-60419990D01*
X78112437Y-60657886D01*
X77799066Y-60860526D01*
X77469888Y-61027508D01*
X77126196Y-61158430D01*
X76769282Y-61252891D01*
X76400441Y-61310489D01*
X76020965Y-61330822D01*
X75632147Y-61313489D01*
X75556633Y-61305828D01*
X75202378Y-61247065D01*
X74854217Y-61150511D01*
X74515783Y-61017711D01*
X74190710Y-60850206D01*
X73882631Y-60649540D01*
X73724049Y-60527476D01*
X73629285Y-60445065D01*
X73520884Y-60342450D01*
X73407474Y-60228549D01*
X73297681Y-60112281D01*
X73200134Y-60002565D01*
X73123460Y-59908317D01*
X73117754Y-59900733D01*
X72909893Y-59590311D01*
X72737460Y-59265703D01*
X72600408Y-58929597D01*
X72498694Y-58584677D01*
X72432272Y-58233631D01*
X72401098Y-57879143D01*
X72403800Y-57640908D01*
X72593031Y-57640908D01*
X72600507Y-57990603D01*
X72644837Y-58341727D01*
X72727012Y-58691736D01*
X72761836Y-58804229D01*
X72893061Y-59141338D01*
X73059050Y-59461263D01*
X73257977Y-59761458D01*
X73488016Y-60039378D01*
X73747340Y-60292479D01*
X73945335Y-60453535D01*
X74221844Y-60642459D01*
X74510034Y-60800343D01*
X74814628Y-60929092D01*
X75140352Y-61030611D01*
X75491931Y-61106804D01*
X75615748Y-61126913D01*
X75653349Y-61129324D01*
X75723216Y-61130811D01*
X75818212Y-61131337D01*
X75931204Y-61130869D01*
X76055055Y-61129370D01*
X76068968Y-61129141D01*
X76234136Y-61125157D01*
X76368204Y-61118942D01*
X76479449Y-61109841D01*
X76576150Y-61097196D01*
X76656139Y-61082543D01*
X77015918Y-60988955D01*
X77358020Y-60861676D01*
X77680584Y-60702414D01*
X77981752Y-60512875D01*
X78259665Y-60294766D01*
X78512463Y-60049794D01*
X78738287Y-59779666D01*
X78935278Y-59486090D01*
X79101577Y-59170772D01*
X79235324Y-58835419D01*
X79287850Y-58666292D01*
X79315862Y-58563584D01*
X79332209Y-58495720D01*
X79337114Y-58463285D01*
X79330801Y-58466865D01*
X79313494Y-58507045D01*
X79285414Y-58584410D01*
X79271795Y-58624186D01*
X79143613Y-58944225D01*
X78983849Y-59241988D01*
X78794361Y-59515809D01*
X78577009Y-59764022D01*
X78333653Y-59984963D01*
X78066151Y-60176966D01*
X77776363Y-60338366D01*
X77466148Y-60467498D01*
X77137366Y-60562697D01*
X77097351Y-60571632D01*
X77014554Y-60588063D01*
X76935051Y-60599962D01*
X76849768Y-60608024D01*
X76749634Y-60612949D01*
X76625573Y-60615433D01*
X76518914Y-60616095D01*
X76400948Y-60615900D01*
X76296963Y-60614759D01*
X76213206Y-60612817D01*
X76155921Y-60610224D01*
X76131353Y-60607127D01*
X76131015Y-60606891D01*
X76132931Y-60586372D01*
X76141627Y-60530103D01*
X76156572Y-60441058D01*
X76177233Y-60322212D01*
X76203078Y-60176539D01*
X76233573Y-60007015D01*
X76268188Y-59816615D01*
X76306388Y-59608313D01*
X76307137Y-59604259D01*
X76457616Y-59604259D01*
X76458024Y-59638156D01*
X76467348Y-59654871D01*
X76485737Y-59659739D01*
X76513343Y-59658096D01*
X76517159Y-59657727D01*
X76551799Y-59652190D01*
X76573707Y-59637844D01*
X76589127Y-59605604D01*
X76604302Y-59546384D01*
X76609415Y-59523468D01*
X76637731Y-59395384D01*
X76653316Y-59484058D01*
X76668531Y-59567510D01*
X76681397Y-59619553D01*
X76696334Y-59647603D01*
X76717764Y-59659076D01*
X76750106Y-59661389D01*
X76759025Y-59661405D01*
X76804492Y-59659312D01*
X76827072Y-59654171D01*
X76827618Y-59653129D01*
X76831437Y-59632332D01*
X76841685Y-59581645D01*
X76850626Y-59538371D01*
X76926144Y-59538371D01*
X76940663Y-59610713D01*
X76983500Y-59656001D01*
X77053573Y-59673427D01*
X77103491Y-59670822D01*
X77167967Y-59664394D01*
X77225251Y-59661622D01*
X77255647Y-59658050D01*
X77272745Y-59643276D01*
X77359658Y-59643276D01*
X77376939Y-59655442D01*
X77419226Y-59661309D01*
X77426063Y-59661405D01*
X77462808Y-59659635D01*
X77484889Y-59648323D01*
X77499088Y-59618464D01*
X77512189Y-59561055D01*
X77515940Y-59542093D01*
X77537214Y-59462096D01*
X77564032Y-59417844D01*
X77599357Y-59405757D01*
X77623878Y-59411672D01*
X77638955Y-59438269D01*
X77635608Y-59498869D01*
X77613912Y-59592676D01*
X77603913Y-59626921D01*
X77603757Y-59650195D01*
X77628223Y-59659950D01*
X77663386Y-59661405D01*
X77713222Y-59656215D01*
X77724513Y-59646626D01*
X77812794Y-59646626D01*
X77829476Y-59658490D01*
X77853854Y-59661405D01*
X77881410Y-59666889D01*
X77887047Y-59690963D01*
X77881846Y-59720520D01*
X77875930Y-59759741D01*
X77888341Y-59776120D01*
X77928770Y-59779609D01*
X77939396Y-59779636D01*
X77986417Y-59776525D01*
X78005980Y-59760574D01*
X78009929Y-59721857D01*
X78009930Y-59720520D01*
X78014888Y-59678588D01*
X78037753Y-59663146D01*
X78066747Y-59661405D01*
X78113309Y-59651806D01*
X78134750Y-59618630D01*
X78134765Y-59618575D01*
X78139682Y-59574997D01*
X78120985Y-59551891D01*
X78072196Y-59543613D01*
X78048177Y-59543173D01*
X77994790Y-59539593D01*
X77973921Y-59522898D01*
X77979597Y-59484154D01*
X77989737Y-59455783D01*
X78008984Y-59422316D01*
X78041580Y-59407900D01*
X78088263Y-59405237D01*
X78137805Y-59401246D01*
X78165477Y-59391270D01*
X78167571Y-59387144D01*
X78174071Y-59354120D01*
X78179532Y-59337881D01*
X78180074Y-59317913D01*
X78156120Y-59308696D01*
X78109255Y-59306711D01*
X78057600Y-59304777D01*
X78035158Y-59294142D01*
X78031756Y-59267552D01*
X78033252Y-59252522D01*
X78041015Y-59218451D01*
X78061625Y-59202459D01*
X78106755Y-59197470D01*
X78124721Y-59197091D01*
X78196776Y-59186094D01*
X78236372Y-59154738D01*
X78246090Y-59114585D01*
X78230330Y-59099620D01*
X78180689Y-59090765D01*
X78113382Y-59087668D01*
X78053630Y-59085347D01*
X78019543Y-59081348D01*
X78017618Y-59076488D01*
X78019782Y-59075903D01*
X78061275Y-59059982D01*
X78077444Y-59049100D01*
X78106500Y-59044412D01*
X78120589Y-59052436D01*
X78158133Y-59066037D01*
X78195957Y-59066746D01*
X78246431Y-59060396D01*
X78207291Y-58996354D01*
X78162176Y-58946352D01*
X78110308Y-58934435D01*
X78050292Y-58960582D01*
X78011261Y-58993120D01*
X77975429Y-59031718D01*
X77958323Y-59059076D01*
X77958769Y-59065067D01*
X77955676Y-59084691D01*
X77943274Y-59097858D01*
X77932287Y-59121790D01*
X77915636Y-59175620D01*
X77895402Y-59250605D01*
X77873664Y-59338000D01*
X77852499Y-59429062D01*
X77833989Y-59515045D01*
X77820211Y-59587207D01*
X77813244Y-59636803D01*
X77812794Y-59646626D01*
X77724513Y-59646626D01*
X77737010Y-59636013D01*
X77743289Y-59617068D01*
X77771801Y-59489452D01*
X77797871Y-59370910D01*
X77820225Y-59267398D01*
X77837591Y-59184874D01*
X77848696Y-59129294D01*
X77852288Y-59107011D01*
X77835015Y-59095524D01*
X77792795Y-59090033D01*
X77786456Y-59089954D01*
X77748577Y-59092182D01*
X77726053Y-59105131D01*
X77711071Y-59138197D01*
X77696369Y-59198333D01*
X77680498Y-59260536D01*
X77664486Y-59293101D01*
X77641947Y-59305304D01*
X77621747Y-59306711D01*
X77589903Y-59303639D01*
X77578214Y-59287020D01*
X77581201Y-59245754D01*
X77583707Y-59229613D01*
X77594724Y-59171469D01*
X77606114Y-59126751D01*
X77608039Y-59121234D01*
X77608347Y-59100008D01*
X77582017Y-59091114D01*
X77550294Y-59089954D01*
X77495485Y-59097631D01*
X77470669Y-59122579D01*
X77470063Y-59124438D01*
X77461178Y-59159269D01*
X77447011Y-59220859D01*
X77429502Y-59300090D01*
X77410592Y-59387841D01*
X77392222Y-59474992D01*
X77376332Y-59552423D01*
X77364863Y-59611014D01*
X77359756Y-59641645D01*
X77359658Y-59643276D01*
X77272745Y-59643276D01*
X77274795Y-59641505D01*
X77288826Y-59602772D01*
X77300793Y-59548100D01*
X77315215Y-59477536D01*
X77328099Y-59416609D01*
X77334164Y-59389345D01*
X77337829Y-59363320D01*
X77327186Y-59350584D01*
X77293518Y-59347531D01*
X77238917Y-59349934D01*
X77176596Y-59355535D01*
X77143527Y-59366214D01*
X77129555Y-59386530D01*
X77126752Y-59400311D01*
X77131831Y-59436847D01*
X77151383Y-59444647D01*
X77178099Y-59456793D01*
X77177361Y-59487109D01*
X77150091Y-59526419D01*
X77142436Y-59533742D01*
X77106613Y-59556819D01*
X77080634Y-59547904D01*
X77080530Y-59547800D01*
X77071891Y-59516532D01*
X77073789Y-59459922D01*
X77084145Y-59389967D01*
X77100885Y-59318661D01*
X77121933Y-59258002D01*
X77135043Y-59232817D01*
X77169953Y-59196102D01*
X77201070Y-59191238D01*
X77219706Y-59217732D01*
X77221722Y-59237743D01*
X77226875Y-59271057D01*
X77250063Y-59284696D01*
X77290690Y-59287006D01*
X77335911Y-59282758D01*
X77358179Y-59263888D01*
X77363434Y-59221206D01*
X77360742Y-59178627D01*
X77339197Y-59124432D01*
X77291913Y-59089112D01*
X77228267Y-59073650D01*
X77157635Y-59079031D01*
X77089395Y-59106240D01*
X77042112Y-59145178D01*
X77008730Y-59199318D01*
X76976624Y-59279781D01*
X76949630Y-59373562D01*
X76931584Y-59467657D01*
X76926144Y-59538371D01*
X76850626Y-59538371D01*
X76856546Y-59509716D01*
X76874206Y-59425194D01*
X76892849Y-59336727D01*
X76910661Y-59252965D01*
X76925827Y-59182554D01*
X76936499Y-59134291D01*
X76938657Y-59104567D01*
X76920021Y-59092238D01*
X76877632Y-59089954D01*
X76842177Y-59091232D01*
X76818659Y-59100008D01*
X76802641Y-59123698D01*
X76789687Y-59169715D01*
X76775360Y-59245473D01*
X76771507Y-59267301D01*
X76755881Y-59355974D01*
X76732634Y-59251552D01*
X76719481Y-59187210D01*
X76711054Y-59135882D01*
X76709387Y-59117352D01*
X76698631Y-59097635D01*
X76661117Y-59092283D01*
X76635737Y-59093691D01*
X76562088Y-59099807D01*
X76508379Y-59346121D01*
X76482943Y-59463577D01*
X76465972Y-59547844D01*
X76457616Y-59604259D01*
X76307137Y-59604259D01*
X76347643Y-59385085D01*
X76391418Y-59149905D01*
X76400850Y-59099443D01*
X76498013Y-58580004D01*
X76618918Y-58580004D01*
X76634775Y-58594723D01*
X76677186Y-58597324D01*
X76715039Y-58594998D01*
X76737478Y-58581704D01*
X76752429Y-58547965D01*
X76766397Y-58490658D01*
X76786657Y-58423583D01*
X76810346Y-58380906D01*
X76822090Y-58371781D01*
X76859193Y-58368994D01*
X76874610Y-58398008D01*
X76868681Y-58459562D01*
X76866530Y-58469257D01*
X76852012Y-58538239D01*
X76850484Y-58576958D01*
X76864687Y-58593209D01*
X76897362Y-58594783D01*
X76910284Y-58593646D01*
X76973245Y-58587471D01*
X76993498Y-58495435D01*
X77065312Y-58495435D01*
X77075005Y-58548472D01*
X77100901Y-58580502D01*
X77103491Y-58582192D01*
X77135978Y-58623552D01*
X77142901Y-58661180D01*
X77148742Y-58700391D01*
X77174540Y-58714335D01*
X77199554Y-58715555D01*
X77242597Y-58708148D01*
X77262943Y-58677877D01*
X77267517Y-58659001D01*
X77290005Y-58610855D01*
X77318253Y-58592136D01*
X77354140Y-58569157D01*
X77391343Y-58525998D01*
X77396832Y-58517444D01*
X77407138Y-58493872D01*
X77497886Y-58493872D01*
X77514513Y-58550876D01*
X77558461Y-58592041D01*
X77619573Y-58613721D01*
X77687693Y-58612270D01*
X77751459Y-58584896D01*
X77789580Y-58546364D01*
X77820899Y-58494811D01*
X77839766Y-58443007D01*
X77840534Y-58403720D01*
X77835374Y-58395181D01*
X77798191Y-58381807D01*
X77753701Y-58394105D01*
X77717369Y-58425583D01*
X77706303Y-58449363D01*
X77686095Y-58486545D01*
X77662035Y-58498798D01*
X77642651Y-58491883D01*
X77636949Y-58464803D01*
X77641691Y-58414772D01*
X77657310Y-58330452D01*
X77659901Y-58321451D01*
X79349883Y-58321451D01*
X79357093Y-58337671D01*
X79363020Y-58334588D01*
X79365378Y-58311203D01*
X79363020Y-58308314D01*
X79351305Y-58311019D01*
X79349883Y-58321451D01*
X77659901Y-58321451D01*
X77677937Y-58258789D01*
X77700824Y-58204726D01*
X77723224Y-58173207D01*
X77742389Y-58169175D01*
X77755572Y-58197572D01*
X77757169Y-58207011D01*
X77770837Y-58240422D01*
X77806628Y-58251999D01*
X77822730Y-58252483D01*
X77866013Y-58246421D01*
X77875774Y-58232778D01*
X79369588Y-58232778D01*
X79379441Y-58242630D01*
X79389294Y-58232778D01*
X79379441Y-58222925D01*
X79369588Y-58232778D01*
X77875774Y-58232778D01*
X77884256Y-58220923D01*
X77887987Y-58199268D01*
X77880980Y-58127052D01*
X77843052Y-58076744D01*
X77794260Y-58055670D01*
X77723299Y-58056877D01*
X77651820Y-58084298D01*
X77595542Y-58130496D01*
X77578234Y-58157835D01*
X77558563Y-58212172D01*
X77537134Y-58287982D01*
X77517505Y-58370378D01*
X77503236Y-58444475D01*
X77497886Y-58493872D01*
X77407138Y-58493872D01*
X77422141Y-58459559D01*
X77444972Y-58379563D01*
X77462669Y-58291354D01*
X77472573Y-58208832D01*
X77472028Y-58145895D01*
X77469969Y-58134935D01*
X77440393Y-58090807D01*
X77384876Y-58062550D01*
X77314976Y-58053900D01*
X77252894Y-58064751D01*
X77196220Y-58093198D01*
X77153471Y-58140280D01*
X77119919Y-58213174D01*
X77093825Y-58306138D01*
X77071644Y-58416341D01*
X77065312Y-58495435D01*
X76993498Y-58495435D01*
X77027448Y-58341156D01*
X77047960Y-58247206D01*
X77065087Y-58167365D01*
X77077180Y-58109419D01*
X77082591Y-58081151D01*
X77082718Y-58080063D01*
X77066190Y-58070182D01*
X77024295Y-58065373D01*
X77016949Y-58065284D01*
X76976321Y-58067822D01*
X76954042Y-58082260D01*
X76940939Y-58118835D01*
X76933079Y-58158883D01*
X76918972Y-58217751D01*
X76900230Y-58247651D01*
X76870280Y-58258976D01*
X76869757Y-58259052D01*
X76843087Y-58260636D01*
X76831185Y-58249312D01*
X76830931Y-58215904D01*
X76837437Y-58164051D01*
X76851407Y-58062482D01*
X76786678Y-58068809D01*
X76721949Y-58075136D01*
X76677804Y-58282041D01*
X76658364Y-58373436D01*
X76641000Y-58455585D01*
X76628001Y-58517621D01*
X76622753Y-58543135D01*
X76618918Y-58580004D01*
X76498013Y-58580004D01*
X76680912Y-57602211D01*
X77214936Y-57596973D01*
X77748961Y-57591734D01*
X77761214Y-57530468D01*
X77769972Y-57478484D01*
X77773467Y-57442107D01*
X77768578Y-57437699D01*
X77752531Y-57433780D01*
X77723265Y-57430323D01*
X77678713Y-57427301D01*
X77616812Y-57424686D01*
X77535497Y-57422452D01*
X77432703Y-57420571D01*
X77306368Y-57419018D01*
X77154425Y-57417764D01*
X76974810Y-57416782D01*
X76765460Y-57416046D01*
X76524309Y-57415529D01*
X76249294Y-57415203D01*
X75938349Y-57415042D01*
X75703113Y-57415012D01*
X73632758Y-57415012D01*
X73638993Y-57360823D01*
X73645229Y-57306634D01*
X75729053Y-57301617D01*
X76067276Y-57300738D01*
X76368138Y-57299802D01*
X76633690Y-57298776D01*
X76865982Y-57297630D01*
X77067064Y-57296332D01*
X77238987Y-57294851D01*
X77383801Y-57293154D01*
X77503556Y-57291212D01*
X77600301Y-57288991D01*
X77676088Y-57286460D01*
X77732966Y-57283589D01*
X77772986Y-57280345D01*
X77798197Y-57276697D01*
X77810651Y-57272613D01*
X77812878Y-57269596D01*
X77816581Y-57231821D01*
X77825194Y-57181013D01*
X77825687Y-57178550D01*
X79349883Y-57178550D01*
X79357093Y-57194769D01*
X79363020Y-57191687D01*
X79365378Y-57168301D01*
X79363020Y-57165413D01*
X79351305Y-57168118D01*
X79349883Y-57178550D01*
X77825687Y-57178550D01*
X77837509Y-57119434D01*
X75758880Y-57119434D01*
X73680251Y-57119434D01*
X73689669Y-57070171D01*
X73699086Y-57020908D01*
X75774359Y-57020908D01*
X76105941Y-57020882D01*
X76400329Y-57020777D01*
X76659736Y-57020559D01*
X76886380Y-57020189D01*
X77082476Y-57019632D01*
X77250239Y-57018850D01*
X77391885Y-57017808D01*
X77509629Y-57016468D01*
X77605687Y-57014793D01*
X77682274Y-57012748D01*
X77741606Y-57010296D01*
X77785898Y-57007399D01*
X77817366Y-57004021D01*
X77838225Y-57000126D01*
X77850691Y-56995677D01*
X77856980Y-56990637D01*
X77858981Y-56986424D01*
X77870386Y-56940917D01*
X77880390Y-56897751D01*
X77892449Y-56843561D01*
X75832881Y-56843561D01*
X75503139Y-56843544D01*
X75210585Y-56843466D01*
X74952995Y-56843287D01*
X74728148Y-56842967D01*
X74533820Y-56842466D01*
X74367789Y-56841744D01*
X74227833Y-56840762D01*
X74111727Y-56839479D01*
X74017250Y-56837856D01*
X73942179Y-56835852D01*
X73884292Y-56833428D01*
X73841364Y-56830543D01*
X73811175Y-56827159D01*
X73791500Y-56823234D01*
X73780118Y-56818729D01*
X73774805Y-56813604D01*
X73773339Y-56807819D01*
X73773312Y-56806564D01*
X73786731Y-56763427D01*
X73800168Y-56747278D01*
X73816737Y-56743392D01*
X73857488Y-56739932D01*
X73923818Y-56736884D01*
X74017126Y-56734232D01*
X74138808Y-56731962D01*
X74290263Y-56730059D01*
X74472889Y-56728508D01*
X74688084Y-56727296D01*
X74937246Y-56726406D01*
X75221773Y-56725824D01*
X75543062Y-56725536D01*
X75862291Y-56725514D01*
X76142082Y-56725505D01*
X76410663Y-56725337D01*
X76665422Y-56725022D01*
X76903751Y-56724568D01*
X77123038Y-56723988D01*
X77320673Y-56723290D01*
X77494046Y-56722486D01*
X77640545Y-56721585D01*
X77757562Y-56720597D01*
X77842484Y-56719534D01*
X77892702Y-56718405D01*
X77906138Y-56717459D01*
X77913898Y-56694268D01*
X77922860Y-56646753D01*
X77925508Y-56628432D01*
X77936298Y-56547983D01*
X75904491Y-56547983D01*
X73872683Y-56547983D01*
X73895129Y-56498720D01*
X73917575Y-56449457D01*
X75944047Y-56449457D01*
X77970519Y-56449457D01*
X77970789Y-56405121D01*
X77976382Y-56348053D01*
X77982939Y-56316447D01*
X77994821Y-56272111D01*
X76012151Y-56272111D01*
X75736274Y-56272008D01*
X75471786Y-56271710D01*
X75221315Y-56271230D01*
X74987493Y-56270583D01*
X74772948Y-56269782D01*
X74580312Y-56268841D01*
X74412214Y-56267775D01*
X74271284Y-56266596D01*
X74160152Y-56265321D01*
X74081449Y-56263961D01*
X74037804Y-56262532D01*
X74029480Y-56261565D01*
X74041988Y-56228848D01*
X74076408Y-56172972D01*
X74128081Y-56099885D01*
X74192350Y-56015533D01*
X74264556Y-55925864D01*
X74340041Y-55836828D01*
X74414147Y-55754370D01*
X74479016Y-55687560D01*
X74729180Y-55469225D01*
X74997084Y-55284154D01*
X75279764Y-55132374D01*
X75574257Y-55013912D01*
X75877598Y-54928795D01*
X76186823Y-54877049D01*
X76498969Y-54858703D01*
X76811073Y-54873784D01*
X77120168Y-54922317D01*
X77423294Y-55004331D01*
X77717484Y-55119853D01*
X77999775Y-55268909D01*
X78267204Y-55451526D01*
X78499256Y-55650815D01*
X78710055Y-55869995D01*
X78889178Y-56096236D01*
X79040979Y-56336637D01*
X79169815Y-56598292D01*
X79280039Y-56888297D01*
X79303858Y-56961793D01*
X79324323Y-57022840D01*
X79336055Y-57049506D01*
X79339621Y-57045707D01*
X79335585Y-57015361D01*
X79324514Y-56962382D01*
X79306974Y-56890689D01*
X79283530Y-56804198D01*
X79278590Y-56786885D01*
X79162976Y-56455250D01*
X79012026Y-56137926D01*
X78828066Y-55837617D01*
X78613420Y-55557025D01*
X78370415Y-55298854D01*
X78101377Y-55065808D01*
X77808630Y-54860591D01*
X77494502Y-54685904D01*
X77454581Y-54666696D01*
X77124370Y-54531918D01*
X76783032Y-54433616D01*
X76434048Y-54371660D01*
X76080899Y-54345921D01*
X75727066Y-54356272D01*
X75376028Y-54402584D01*
X75031267Y-54484728D01*
X74696264Y-54602576D01*
X74374498Y-54755998D01*
X74327428Y-54782164D01*
X74020819Y-54977665D01*
X73741163Y-55200032D01*
X73489450Y-55446721D01*
X73266670Y-55715190D01*
X73073813Y-56002894D01*
X72911869Y-56307289D01*
X72781829Y-56625832D01*
X72684683Y-56955978D01*
X72621420Y-57295185D01*
X72593031Y-57640908D01*
X72403800Y-57640908D01*
X72405127Y-57523901D01*
X72444314Y-57170591D01*
X72518614Y-56821897D01*
X72627983Y-56480507D01*
X72772375Y-56149107D01*
X72951746Y-55830382D01*
X73166051Y-55527019D01*
X73191252Y-55495328D01*
X73426466Y-55231711D01*
X73689303Y-54989530D01*
X73973586Y-54773654D01*
X74273138Y-54588956D01*
X74462994Y-54492621D01*
X74807288Y-54353025D01*
X75159535Y-54250338D01*
X75516892Y-54184106D01*
X75876520Y-54153878D01*
X76235576Y-54159203D01*
G37*
D12*
%TO.C,C7*%
X104130000Y-71130000D02*
X104195000Y-71130000D01*
X104130000Y-74370000D02*
X104130000Y-71130000D01*
X104130000Y-74370000D02*
X104195000Y-74370000D01*
X106305000Y-71130000D02*
X106370000Y-71130000D01*
X106305000Y-74370000D02*
X106370000Y-74370000D01*
X106370000Y-74370000D02*
X106370000Y-71130000D01*
%TO.C,C3*%
X110380000Y-86880000D02*
X110445000Y-86880000D01*
X110380000Y-90120000D02*
X110380000Y-86880000D01*
X110380000Y-90120000D02*
X110445000Y-90120000D01*
X112555000Y-86880000D02*
X112620000Y-86880000D01*
X112555000Y-90120000D02*
X112620000Y-90120000D01*
X112620000Y-90120000D02*
X112620000Y-86880000D01*
%TO.C,SWD*%
X94590000Y-56420000D02*
X94590000Y-59080000D01*
X102270000Y-56420000D02*
X94590000Y-56420000D01*
X102270000Y-56420000D02*
X102270000Y-59080000D01*
X102270000Y-59080000D02*
X94590000Y-59080000D01*
X103540000Y-56420000D02*
X104870000Y-56420000D01*
X104870000Y-56420000D02*
X104870000Y-57750000D01*
%TO.C,D2*%
X92670000Y-96830000D02*
X92670000Y-95500000D01*
X94000000Y-96830000D02*
X92670000Y-96830000D01*
X95270000Y-94170000D02*
X95330000Y-94170000D01*
X95270000Y-96830000D02*
X95270000Y-94170000D01*
X95270000Y-96830000D02*
X95330000Y-96830000D01*
X95330000Y-96830000D02*
X95330000Y-94170000D01*
%TO.C,C6*%
X98380000Y-86945000D02*
X98380000Y-86880000D01*
X98380000Y-89120000D02*
X98380000Y-89055000D01*
X101620000Y-86880000D02*
X98380000Y-86880000D01*
X101620000Y-86945000D02*
X101620000Y-86880000D01*
X101620000Y-89120000D02*
X98380000Y-89120000D01*
X101620000Y-89120000D02*
X101620000Y-89055000D01*
D14*
%TO.C,Y1*%
X71920000Y-74080000D02*
X71920000Y-80920000D01*
X76580000Y-74080000D02*
X76580000Y-80920000D01*
X71920000Y-74080000D02*
G75*
G02*
X74250000Y-71750000I2329999J1D01*
G01*
X74250000Y-71750000D02*
G75*
G02*
X76580000Y-74080000I1J-2329999D01*
G01*
X74250000Y-83250000D02*
G75*
G02*
X71920000Y-80920000I0J2330000D01*
G01*
X76580000Y-80920000D02*
G75*
G02*
X74250000Y-83250000I-2330000J0D01*
G01*
D12*
%TO.C,C12*%
X78330000Y-71871000D02*
X78330000Y-73129000D01*
X80170000Y-71871000D02*
X80170000Y-73129000D01*
%TO.C,RX*%
X124670000Y-61580000D02*
X124670000Y-60250000D01*
X126000000Y-61580000D02*
X124670000Y-61580000D01*
X127270000Y-58920000D02*
X127330000Y-58920000D01*
X127270000Y-61580000D02*
X127270000Y-58920000D01*
X127270000Y-61580000D02*
X127330000Y-61580000D01*
X127330000Y-61580000D02*
X127330000Y-58920000D01*
%TO.C,A1*%
X101920000Y-96830000D02*
X101920000Y-95500000D01*
X103250000Y-96830000D02*
X101920000Y-96830000D01*
X104520000Y-94170000D02*
X104580000Y-94170000D01*
X104520000Y-96830000D02*
X104520000Y-94170000D01*
X104520000Y-96830000D02*
X104580000Y-96830000D01*
X104580000Y-96830000D02*
X104580000Y-94170000D01*
%TO.C,U2*%
X114305000Y-74635000D02*
X118065000Y-74635000D01*
X114305000Y-81455000D02*
X118065000Y-81455000D01*
X118065000Y-74635000D02*
X118065000Y-75895000D01*
X118065000Y-81455000D02*
X118065000Y-80195000D01*
X113025000Y-74735000D02*
X112785000Y-74405000D01*
X113265000Y-74405000D01*
X113025000Y-74735000D01*
G36*
X113025000Y-74735000D02*
G01*
X112785000Y-74405000D01*
X113265000Y-74405000D01*
X113025000Y-74735000D01*
G37*
%TO.C,C13*%
X78330000Y-84129000D02*
X78330000Y-82871000D01*
X80170000Y-84129000D02*
X80170000Y-82871000D01*
%TO.C,R2*%
X102920000Y-63580000D02*
X99080000Y-63580000D01*
X102920000Y-65420000D02*
X99080000Y-65420000D01*
%TO.C,C5*%
X92920000Y-63380000D02*
X92920000Y-63445000D01*
X92920000Y-63380000D02*
X96160000Y-63380000D01*
X92920000Y-65555000D02*
X92920000Y-65620000D01*
X92920000Y-65620000D02*
X96160000Y-65620000D01*
X96160000Y-63380000D02*
X96160000Y-63445000D01*
X96160000Y-65555000D02*
X96160000Y-65620000D01*
%TO.C,C8*%
X85371000Y-90330000D02*
X86629000Y-90330000D01*
X85371000Y-92170000D02*
X86629000Y-92170000D01*
%TO.C,C10*%
X104325000Y-86885000D02*
X104390000Y-86885000D01*
X104325000Y-90125000D02*
X104325000Y-86885000D01*
X104325000Y-90125000D02*
X104390000Y-90125000D01*
X106500000Y-86885000D02*
X106565000Y-86885000D01*
X106500000Y-90125000D02*
X106565000Y-90125000D01*
X106565000Y-90125000D02*
X106565000Y-86885000D01*
D10*
%TO.C,USB*%
X124880000Y-79120000D02*
X124880000Y-79845000D01*
X124880000Y-79845000D02*
X125305000Y-79845000D01*
X125305000Y-76245000D02*
X125305000Y-75245000D01*
X125305000Y-79845000D02*
X125305000Y-80845000D01*
X127055000Y-82195000D02*
X128455000Y-82195000D01*
X128455000Y-73895000D02*
X127055000Y-73895000D01*
X130855000Y-82195000D02*
X131005000Y-82195000D01*
X131005000Y-73895000D02*
X130855000Y-73895000D01*
X131005000Y-74195000D02*
X131005000Y-73895000D01*
X131005000Y-81895000D02*
X131455000Y-81895000D01*
X131005000Y-82195000D02*
X131005000Y-81895000D01*
X131455000Y-74195000D02*
X131005000Y-74195000D01*
D12*
%TO.C,C11*%
X87130000Y-82380000D02*
X87130000Y-85620000D01*
X87195000Y-82380000D02*
X87130000Y-82380000D01*
X87195000Y-85620000D02*
X87130000Y-85620000D01*
X89370000Y-82380000D02*
X89305000Y-82380000D01*
X89370000Y-82380000D02*
X89370000Y-85620000D01*
X89370000Y-85620000D02*
X89305000Y-85620000D01*
%TO.C,C2*%
X107380000Y-86880000D02*
X107445000Y-86880000D01*
X107380000Y-90120000D02*
X107380000Y-86880000D01*
X107380000Y-90120000D02*
X107445000Y-90120000D01*
X109555000Y-86880000D02*
X109620000Y-86880000D01*
X109555000Y-90120000D02*
X109620000Y-90120000D01*
X109620000Y-90120000D02*
X109620000Y-86880000D01*
%TD*%
M02*
