M48
; DRILL file {KiCad 8.0.5} date 2024-10-18T14:20:22+0700
; FORMAT={-:-/ absolute / metric / decimal}
; #@! TF.CreationDate,2024-10-18T14:20:22+07:00
; #@! TF.GenerationSoftware,Kicad,Pcbnew,8.0.5
; #@! TF.FileFunction,MixedPlating,1,2
FMAT,2
METRIC
; #@! TA.AperFunction,Plated,PTH,ComponentDrill
T1C0.550
; #@! TA.AperFunction,Plated,PTH,ComponentDrill
T2C0.680
; #@! TA.AperFunction,Plated,PTH,ComponentDrill
T3C0.700
; #@! TA.AperFunction,Plated,PTH,ComponentDrill
T4C0.800
; #@! TA.AperFunction,Plated,PTH,ComponentDrill
T5C0.850
; #@! TA.AperFunction,Plated,PTH,ComponentDrill
T6C1.000
; #@! TA.AperFunction,NonPlated,NPTH,ComponentDrill
T7C0.800
%
G90
G05
T2
X74.25Y-75.06
X74.25Y-79.94
T3
X98.46Y-64.5
X103.54Y-64.5
T4
X79.25Y-71.25
X79.25Y-73.75
X79.25Y-82.25
X79.25Y-84.75
X84.75Y-91.25
X87.25Y-91.25
X87.75Y-71.5
X87.75Y-74.0
X88.25Y-82.75
X88.25Y-85.25
X91.5Y-88.0
X93.29Y-64.5
X94.0Y-88.0
X95.79Y-64.5
X98.75Y-88.0
X101.25Y-88.0
X105.25Y-71.5
X105.25Y-74.0
X105.445Y-87.255
X105.445Y-89.755
X108.5Y-87.25
X108.5Y-89.75
X111.5Y-87.25
X111.5Y-89.75
X112.965Y-68.785
X112.965Y-71.285
T5
X83.5Y-73.75
X83.5Y-83.75
T6
X90.2Y-95.5
X94.0Y-95.5
X95.92Y-57.75
X98.46Y-57.75
X101.0Y-57.75
X103.25Y-95.5
X103.54Y-57.75
X126.0Y-60.25
X126.0Y-64.25
T7
X126.905Y-75.545
X126.905Y-80.545
T1
G00X129.33Y-74.17
M15
G01X129.98Y-74.17
M16
G05
G00X129.33Y-81.92
M15
G01X129.98Y-81.92
M16
G05
T5
G00X125.58Y-74.32
M15
G01X126.13Y-74.32
M16
G05
G00X125.58Y-81.77
M15
G01X126.13Y-81.77
M16
G05
M30
