%TF.GenerationSoftware,KiCad,Pcbnew,8.0.5*%
%TF.CreationDate,2024-10-18T14:20:25+07:00*%
%TF.ProjectId,stm32la_pcb,73746d33-326c-4615-9f70-63622e6b6963,rev?*%
%TF.SameCoordinates,Original*%
%TF.FileFunction,Soldermask,Top*%
%TF.FilePolarity,Negative*%
%FSLAX46Y46*%
G04 Gerber Fmt 4.6, Leading zero omitted, Abs format (unit mm)*
G04 Created by KiCad (PCBNEW 8.0.5) date 2024-10-18 14:20:25*
%MOMM*%
%LPD*%
G01*
G04 APERTURE LIST*
G04 Aperture macros list*
%AMRoundRect*
0 Rectangle with rounded corners*
0 $1 Rounding radius*
0 $2 $3 $4 $5 $6 $7 $8 $9 X,Y pos of 4 corners*
0 Add a 4 corners polygon primitive as box body*
4,1,4,$2,$3,$4,$5,$6,$7,$8,$9,$2,$3,0*
0 Add four circle primitives for the rounded corners*
1,1,$1+$1,$2,$3*
1,1,$1+$1,$4,$5*
1,1,$1+$1,$6,$7*
1,1,$1+$1,$8,$9*
0 Add four rect primitives between the rounded corners*
20,1,$1+$1,$2,$3,$4,$5,0*
20,1,$1+$1,$4,$5,$6,$7,0*
20,1,$1+$1,$6,$7,$8,$9,0*
20,1,$1+$1,$8,$9,$2,$3,0*%
G04 Aperture macros list end*
%ADD10R,1.700000X1.700000*%
%ADD11C,1.600000*%
%ADD12O,1.600000X1.600000*%
%ADD13RoundRect,0.075000X-0.662500X-0.075000X0.662500X-0.075000X0.662500X0.075000X-0.662500X0.075000X0*%
%ADD14RoundRect,0.075000X-0.075000X-0.662500X0.075000X-0.662500X0.075000X0.662500X-0.075000X0.662500X0*%
%ADD15O,1.700000X1.700000*%
%ADD16C,1.284000*%
%ADD17RoundRect,0.375000X-0.625000X-0.375000X0.625000X-0.375000X0.625000X0.375000X-0.625000X0.375000X0*%
%ADD18RoundRect,0.500000X-0.500000X-1.400000X0.500000X-1.400000X0.500000X1.400000X-0.500000X1.400000X0*%
%ADD19C,1.400000*%
%ADD20O,1.400000X1.400000*%
%ADD21O,0.800000X0.800000*%
%ADD22R,1.300000X0.450000*%
%ADD23O,1.800000X1.150000*%
%ADD24O,2.000000X1.450000*%
G04 APERTURE END LIST*
D10*
%TO.C,TX*%
X126000000Y-64250000D03*
%TD*%
D11*
%TO.C,C1*%
X112965000Y-68785000D03*
X112965000Y-71285000D03*
%TD*%
%TO.C,FB1*%
X83500000Y-73750000D03*
D12*
X83500000Y-83750000D03*
%TD*%
D11*
%TO.C,C9*%
X91500000Y-88000000D03*
X94000000Y-88000000D03*
%TD*%
D13*
%TO.C,U1*%
X93587500Y-74750000D03*
X93587500Y-75250000D03*
X93587500Y-75750000D03*
X93587500Y-76250000D03*
X93587500Y-76750000D03*
X93587500Y-77250000D03*
X93587500Y-77750000D03*
X93587500Y-78250000D03*
X93587500Y-78750000D03*
X93587500Y-79250000D03*
X93587500Y-79750000D03*
X93587500Y-80250000D03*
D14*
X95000000Y-81662500D03*
X95500000Y-81662500D03*
X96000000Y-81662500D03*
X96500000Y-81662500D03*
X97000000Y-81662500D03*
X97500000Y-81662500D03*
X98000000Y-81662500D03*
X98500000Y-81662500D03*
X99000000Y-81662500D03*
X99500000Y-81662500D03*
X100000000Y-81662500D03*
X100500000Y-81662500D03*
D13*
X101912500Y-80250000D03*
X101912500Y-79750000D03*
X101912500Y-79250000D03*
X101912500Y-78750000D03*
X101912500Y-78250000D03*
X101912500Y-77750000D03*
X101912500Y-77250000D03*
X101912500Y-76750000D03*
X101912500Y-76250000D03*
X101912500Y-75750000D03*
X101912500Y-75250000D03*
X101912500Y-74750000D03*
D14*
X100500000Y-73337500D03*
X100000000Y-73337500D03*
X99500000Y-73337500D03*
X99000000Y-73337500D03*
X98500000Y-73337500D03*
X98000000Y-73337500D03*
X97500000Y-73337500D03*
X97000000Y-73337500D03*
X96500000Y-73337500D03*
X96000000Y-73337500D03*
X95500000Y-73337500D03*
X95000000Y-73337500D03*
%TD*%
D10*
%TO.C,D1*%
X90200000Y-95500000D03*
%TD*%
D11*
%TO.C,C4*%
X87750000Y-74000000D03*
X87750000Y-71500000D03*
%TD*%
%TO.C,C7*%
X105250000Y-74000000D03*
X105250000Y-71500000D03*
%TD*%
%TO.C,C3*%
X111500000Y-89750000D03*
X111500000Y-87250000D03*
%TD*%
D10*
%TO.C,SWD*%
X103540000Y-57750000D03*
D15*
X101000000Y-57750000D03*
X98460000Y-57750000D03*
X95920000Y-57750000D03*
%TD*%
D10*
%TO.C,D2*%
X94000000Y-95500000D03*
%TD*%
D11*
%TO.C,C6*%
X101250000Y-88000000D03*
X98750000Y-88000000D03*
%TD*%
D16*
%TO.C,Y1*%
X74250000Y-75060000D03*
X74250000Y-79940000D03*
%TD*%
D11*
%TO.C,C12*%
X79250000Y-71250000D03*
X79250000Y-73750000D03*
%TD*%
D10*
%TO.C,RX*%
X126000000Y-60250000D03*
%TD*%
%TO.C,A1*%
X103250000Y-95500000D03*
%TD*%
D17*
%TO.C,U2*%
X113005000Y-75745000D03*
X113005000Y-78045000D03*
D18*
X119305000Y-78045000D03*
D17*
X113005000Y-80345000D03*
%TD*%
D11*
%TO.C,C13*%
X79250000Y-84750000D03*
X79250000Y-82250000D03*
%TD*%
D19*
%TO.C,R2*%
X103540000Y-64500000D03*
D20*
X98460000Y-64500000D03*
%TD*%
D11*
%TO.C,C5*%
X93290000Y-64500000D03*
X95790000Y-64500000D03*
%TD*%
%TO.C,C8*%
X84750000Y-91250000D03*
X87250000Y-91250000D03*
%TD*%
%TO.C,C10*%
X105445000Y-89755000D03*
X105445000Y-87255000D03*
%TD*%
D21*
%TO.C,USB*%
X126905000Y-80545000D03*
X126905000Y-75545000D03*
D22*
X125805000Y-79345000D03*
X125805000Y-78695000D03*
X125805000Y-78045000D03*
X125805000Y-77395000D03*
X125805000Y-76745000D03*
D23*
X129655000Y-81920000D03*
D24*
X125855000Y-81770000D03*
X125855000Y-74320000D03*
D23*
X129655000Y-74170000D03*
%TD*%
D11*
%TO.C,C11*%
X88250000Y-82750000D03*
X88250000Y-85250000D03*
%TD*%
%TO.C,C2*%
X108500000Y-89750000D03*
X108500000Y-87250000D03*
%TD*%
M02*
